<svg width="281" height="177" viewBox="0 0 281 177" fill="none" xmlns="http://www.w3.org/2000/svg">
<path d="M277.693 43.6125C277.603 43.3514 277.318 43.2125 277.057 43.3024C277.056 43.3027 277.055 43.303 277.055 43.3033C276.48 41.6929 275.817 40.1248 275.068 38.5996C275.069 38.5992 275.07 38.5988 275.071 38.5983C275.317 38.4739 275.416 38.1732 275.292 37.9267C274.982 37.3145 274.66 36.7094 274.323 36.1112C274.188 35.8705 273.883 35.7851 273.643 35.9204C273.642 35.9209 273.641 35.9213 273.64 35.9218C272.793 34.4525 271.863 33.0263 270.852 31.6436C270.853 31.6431 270.854 31.6426 270.854 31.6421C271.076 31.4769 271.121 31.1636 270.956 30.9423C270.547 30.3946 270.126 29.8538 269.692 29.3201C269.518 29.1057 269.203 29.0731 268.989 29.2472C268.988 29.2478 268.988 29.2483 268.987 29.2488C267.911 27.951 266.761 26.6951 265.541 25.4817C265.541 25.4811 265.542 25.4806 265.542 25.4801C265.735 25.2825 265.731 24.9659 265.534 24.773C265.045 24.2961 264.546 23.826 264.036 23.3625C263.831 23.1768 263.515 23.1919 263.329 23.3963C263.329 23.3968 263.328 23.3974 263.328 23.3979C262.076 22.2798 260.76 21.2012 259.382 20.1627C259.383 20.1621 259.383 20.1616 259.384 20.1611C259.548 19.9394 259.502 19.6262 259.28 19.4616C258.73 19.0537 258.171 18.6521 257.603 18.2568C257.376 18.0991 257.064 18.1551 256.907 18.3818C256.906 18.3823 256.906 18.3828 256.906 18.3833C255.524 17.4374 254.089 16.5283 252.601 15.6563C252.601 15.6559 252.601 15.6554 252.602 15.6549C252.74 15.4158 252.658 15.11 252.419 14.9719C251.829 14.6317 251.232 14.2973 250.627 13.9686C250.385 13.8368 250.081 13.9266 249.949 14.1693C249.949 14.1697 249.949 14.1702 249.948 14.1706C248.467 13.3774 246.938 12.6184 245.366 11.8943C245.366 11.8938 245.366 11.8934 245.366 11.893C245.48 11.6415 245.369 11.3452 245.117 11.2311C244.503 10.9525 243.883 10.6792 243.256 10.4111C243.002 10.3025 242.708 10.4203 242.6 10.6742C242.599 10.6746 242.599 10.675 242.599 10.6754C241.051 10.0231 239.463 9.40266 237.838 8.81436C237.838 8.81398 237.838 8.81361 237.838 8.81323C237.931 8.55314 237.796 8.26709 237.535 8.17434C236.893 7.94538 236.246 7.72138 235.592 7.50239C235.33 7.41464 235.047 7.55575 234.959 7.81757C234.959 7.81793 234.959 7.8183 234.959 7.81866C233.365 7.29256 231.738 6.79602 230.079 6.32935C230.079 6.32901 230.079 6.32868 230.079 6.32834C230.153 6.06221 229.997 5.78674 229.731 5.71308C229.078 5.53243 228.421 5.35637 227.759 5.18491C227.492 5.11568 227.219 5.27627 227.149 5.54359C227.149 5.54392 227.149 5.54424 227.149 5.54456C225.518 5.12902 223.858 4.74131 222.17 4.3817C222.17 4.3814 222.17 4.3811 222.17 4.3808C222.227 4.1105 222.054 3.84555 221.783 3.78898C221.117 3.64962 220.447 3.5146 219.773 3.38394C219.502 3.3314 219.24 3.50858 219.187 3.77968C219.187 3.77997 219.187 3.78026 219.187 3.78055C217.533 3.46623 215.856 3.17807 214.154 2.91632C214.154 2.91604 214.155 2.91577 214.155 2.91549C214.196 2.64243 214.008 2.38775 213.735 2.34666C213.066 2.24607 212.394 2.14953 211.719 2.05705C211.445 2.0196 211.193 2.21102 211.155 2.48461C211.155 2.48487 211.155 2.48514 211.155 2.48541C209.484 2.26208 207.792 2.06358 206.08 1.89015C206.08 1.8899 206.08 1.88965 206.08 1.8894C206.107 1.61458 205.906 1.36991 205.631 1.34291C204.952 1.27621 204.27 1.21343 203.585 1.15458C203.31 1.13094 203.068 1.33481 203.044 1.60994C203.044 1.61018 203.044 1.61043 203.044 1.61067C201.362 1.47116 199.662 1.35532 197.945 1.26334C197.945 1.26311 197.945 1.26288 197.945 1.26265C197.959 0.986862 197.747 0.751941 197.471 0.737934C196.797 0.703677 196.119 0.673081 195.44 0.646162C195.164 0.635233 194.931 0.85006 194.92 1.12599C194.92 1.12621 194.92 1.12644 194.92 1.12666C193.232 1.06442 191.529 1.02483 189.811 1.00809C189.811 1.00787 189.811 1.00765 189.811 1.00744C189.813 0.731306 189.591 0.50585 189.314 0.503875C188.637 0.499026 187.958 0.497714 187.277 0.499936C187 0.500835 186.777 0.725427 186.778 1.00156C186.778 1.00178 186.778 1.00199 186.778 1.0022C185.088 1.012 183.385 1.04358 181.669 1.09711C181.669 1.09691 181.669 1.09671 181.669 1.0965C181.66 0.820513 181.428 0.604308 181.152 0.613591C180.472 0.636471 179.79 0.66279 179.105 0.692554C178.83 0.704555 178.616 0.93793 178.628 1.21381C178.628 1.21401 178.628 1.21421 178.628 1.21441C176.939 1.2919 175.239 1.39039 173.529 1.51004C173.529 1.50984 173.529 1.50965 173.529 1.50946C173.509 1.23404 173.269 1.0269 172.994 1.0468C172.315 1.09586 171.634 1.14824 170.952 1.20395C170.677 1.22643 170.472 1.46776 170.494 1.74299C170.494 1.74318 170.494 1.74336 170.494 1.74355C168.807 1.88519 167.11 2.0472 165.404 2.22975C165.404 2.22957 165.404 2.22938 165.404 2.2292C165.374 1.95469 165.127 1.75647 164.853 1.78645C164.182 1.85975 163.509 1.93621 162.836 2.01584C162.561 2.04825 162.365 2.29684 162.398 2.57107C162.398 2.57125 162.398 2.57143 162.398 2.57161C160.716 2.77411 159.026 2.99641 157.328 3.23865C157.328 3.23847 157.328 3.2383 157.328 3.23812C157.289 2.96484 157.035 2.77538 156.762 2.81497C156.092 2.91201 155.421 3.01215 154.749 3.1154C154.476 3.15732 154.288 3.41257 154.33 3.6855C154.33 3.68568 154.33 3.68585 154.33 3.68602C152.656 3.94672 150.975 4.22669 149.288 4.52606C149.288 4.5259 149.288 4.52572 149.288 4.52556C149.24 4.25377 148.98 4.073 148.708 4.12181C148.04 4.24179 147.371 4.3648 146.701 4.49086C146.429 4.54192 146.251 4.80331 146.302 5.07469C146.302 5.07485 146.302 5.07503 146.302 5.07519C144.637 5.39182 142.968 5.72726 141.293 6.08164C141.293 6.08148 141.293 6.08131 141.293 6.08115C141.235 5.8111 140.969 5.63896 140.699 5.69666C140.034 5.83882 139.368 5.98395 138.701 6.13207C138.431 6.19196 138.262 6.45903 138.321 6.72861C138.321 6.72876 138.321 6.72893 138.321 6.72909C136.668 7.09972 135.011 7.48875 133.35 7.89629C133.35 7.89614 133.35 7.89597 133.35 7.89582C133.283 7.62776 133.012 7.46421 132.744 7.53052C132.083 7.69418 131.42 7.86077 130.758 8.0303C130.49 8.09874 130.329 8.37109 130.397 8.63862C130.397 8.63877 130.397 8.63893 130.397 8.63909C128.757 9.06206 127.114 9.50306 125.467 9.96219C125.467 9.96204 125.467 9.96189 125.467 9.96173C125.392 9.69589 125.116 9.54092 124.85 9.6156C124.195 9.79986 123.538 9.98699 122.882 10.177C122.616 10.2538 122.463 10.531 122.54 10.7963C122.54 10.7964 122.54 10.7966 122.54 10.7967C120.913 11.2709 119.284 11.7628 117.652 12.2725C117.652 12.2724 117.652 12.2722 117.652 12.2721C117.569 12.0087 117.288 11.8623 117.025 11.9451C116.699 12.0476 116.373 12.1508 116.047 12.2547C115.721 12.3586 115.396 12.4631 115.071 12.568C114.808 12.6529 114.664 12.9347 114.749 13.1975C114.749 13.1977 114.749 13.1978 114.749 13.198C113.123 13.7263 111.51 14.2682 109.908 14.8232C109.908 14.823 109.908 14.8229 109.908 14.8227C109.817 14.562 109.532 14.4243 109.271 14.5152C108.626 14.7402 107.982 14.9674 107.341 15.1967C107.081 15.2896 106.945 15.5758 107.038 15.8358C107.038 15.836 107.038 15.8361 107.038 15.8363C105.43 16.4146 103.834 17.006 102.252 17.6103C102.252 17.6101 102.252 17.61 102.252 17.6098C102.153 17.3521 101.863 17.2233 101.606 17.3223C100.967 17.5676 100.331 17.8149 99.6963 18.0643C99.4393 18.1653 99.3129 18.4556 99.4139 18.7126C99.4139 18.7127 99.414 18.7129 99.4141 18.713C97.8234 19.342 96.2466 19.9839 94.6839 20.6382C94.6839 20.6381 94.6838 20.6379 94.6837 20.6378C94.5766 20.3833 94.2834 20.2638 94.0289 20.371C93.3994 20.636 92.7722 20.9031 92.1473 21.1722C91.8937 21.2814 91.7766 21.5756 91.8858 21.8292C91.8859 21.8293 91.886 21.8295 91.886 21.8296C90.3151 22.5098 88.7591 23.2026 87.2185 23.9075C87.2184 23.9074 87.2184 23.9072 87.2183 23.9071C87.1029 23.6562 86.8059 23.5464 86.5551 23.6618C85.9357 23.9467 85.3189 24.2336 84.7045 24.5224C84.4546 24.6398 84.3473 24.9377 84.4648 25.1876C84.4648 25.1877 84.4649 25.1879 84.465 25.188C82.9159 25.9201 81.3831 26.6645 79.867 27.4206C79.8669 27.4205 79.8668 27.4203 79.8668 27.4201C79.743 27.1733 79.4425 27.0735 79.1957 27.1973C78.5877 27.5021 77.9825 27.8088 77.3799 28.1173C77.1341 28.2432 77.0369 28.5445 77.1628 28.7902C77.1629 28.7904 77.1629 28.7906 77.163 28.7907C75.6384 29.5755 74.1314 30.3723 72.6426 31.1804C72.6425 31.1803 72.6424 31.1801 72.6423 31.1799C72.5101 30.9375 72.2063 30.8482 71.9639 30.9805C71.3684 31.3054 70.7758 31.6322 70.1861 31.9607C69.9449 32.0951 69.8583 32.3996 69.9927 32.6408C69.9928 32.641 69.9929 32.6412 69.993 32.6413C68.496 33.4797 67.0183 34.3296 65.5603 35.1905C65.5602 35.1903 65.5601 35.1901 65.56 35.19C65.4191 34.9525 65.1123 34.8743 64.8749 35.0152C64.2863 35.3645 63.7009 35.7157 63.1187 36.0686C62.8826 36.2118 62.8072 36.5192 62.9504 36.7554C62.9505 36.7555 62.9506 36.7557 62.9507 36.7559C61.4864 37.6482 60.043 38.5516 58.6211 39.4656C58.621 39.4654 58.6208 39.4652 58.6207 39.4651C58.4709 39.2331 58.1614 39.1666 57.9294 39.3164C57.3542 39.6881 56.7824 40.0615 56.2143 40.4366C55.9838 40.5888 55.9203 40.8989 56.0725 41.1294C56.0726 41.1296 56.0727 41.1297 56.0728 41.1299C54.6425 42.0792 53.2351 43.0391 51.8511 44.0091C51.851 44.0089 51.8509 44.0088 51.8508 44.0086C51.6917 43.7829 51.3798 43.7288 51.1541 43.8879C50.597 44.2805 50.0437 44.6747 49.4943 45.0704C49.2702 45.2319 49.2194 45.5443 49.3808 45.7684C49.381 45.7686 49.3811 45.7687 49.3812 45.7689C47.9897 46.7768 46.6234 47.7949 45.2829 48.8224C45.2828 48.8222 45.2826 48.822 45.2825 48.8218C45.1139 48.6031 44.7999 48.5625 44.5812 48.7311C44.0424 49.1464 43.5078 49.5633 42.9774 49.9817C42.7606 50.1527 42.7235 50.4671 42.8945 50.6839C42.8946 50.6841 42.8948 50.6842 42.8949 50.6844C41.5479 51.753 40.2286 52.8312 38.9377 53.9182C38.9376 53.918 38.9374 53.9179 38.9373 53.9177C38.7588 53.707 38.4433 53.6809 38.2326 53.8593C37.708 54.3038 37.1881 54.7496 36.673 55.1969C36.4645 55.378 36.4422 55.6938 36.6233 55.9023C36.6234 55.9025 36.6236 55.9027 36.6238 55.9028C35.3278 57.0351 34.0625 58.1763 32.8288 59.3256C32.8286 59.3254 32.8284 59.3252 32.8282 59.325C32.6394 59.1235 32.3229 59.1133 32.1215 59.3022C31.6242 59.7685 31.132 60.2361 30.645 60.705C30.4461 60.8965 30.4401 61.213 30.6316 61.412C30.6318 61.4122 30.632 61.4124 30.6322 61.4126C29.3963 62.6105 28.1947 63.8165 27.0281 65.0297C27.0279 65.0295 27.0276 65.0293 27.0274 65.029C26.8277 64.8384 26.5112 64.8457 26.3205 65.0454C25.8463 65.5421 25.3779 66.04 24.9154 66.5391C24.7277 66.7416 24.7397 67.058 24.9423 67.2457C24.9425 67.2459 24.9427 67.2461 24.9429 67.2463C23.7749 68.5161 22.6454 69.793 21.5553 71.076C21.555 71.0758 21.5547 71.0756 21.5545 71.0754C21.3433 70.8974 21.0279 70.9243 20.8499 71.1355C20.4092 71.6585 19.975 72.1825 19.5473 72.7074C19.3729 72.9215 19.4051 73.2365 19.6191 73.4109C19.6194 73.4111 19.6197 73.4113 19.62 73.4115C18.5371 74.7521 17.4975 76.0986 16.5021 77.45C16.5018 77.4498 16.5015 77.4496 16.5012 77.4493C16.2781 77.2866 15.9653 77.3355 15.8026 77.5586C15.3964 78.1153 14.9978 78.6728 14.6066 79.2311C14.4482 79.4573 14.5031 79.7691 14.7292 79.9275C14.7296 79.9278 14.7299 79.928 14.7302 79.9282C13.7453 81.3484 12.8096 82.7732 11.9245 84.2011C11.9241 84.2009 11.9237 84.2007 11.9233 84.2004C11.6879 84.0562 11.38 84.1301 11.2358 84.3656C10.8796 84.9471 10.5317 85.5291 10.1921 86.1117C10.0531 86.3502 10.1338 86.6564 10.3723 86.7954C10.3727 86.7956 10.3731 86.7959 10.3735 86.7961C9.50996 88.2968 8.70272 89.8002 7.95325 91.3047C7.95278 91.3044 7.95232 91.3042 7.95185 91.304C7.70393 91.1824 7.40436 91.2848 7.28277 91.5327C6.97962 92.1508 6.68615 92.7691 6.40245 93.3876C6.28731 93.6386 6.39745 93.9354 6.64845 94.0505C6.64894 94.0508 6.64943 94.051 6.64992 94.0512C5.94114 95.6233 5.29633 97.1956 4.71711 98.7664C4.71654 98.7662 4.71597 98.766 4.7154 98.7658C4.45562 98.6721 4.16911 98.8068 4.07547 99.0666C3.84069 99.7179 3.6171 100.369 3.40483 101.02C3.3192 101.282 3.4626 101.565 3.72513 101.65C3.72574 101.65 3.72635 101.651 3.72696 101.651C3.20465 103.295 2.75554 104.936 2.38151 106.572C2.38081 106.572 2.38011 106.572 2.37941 106.572C2.1097 106.513 1.84304 106.683 1.78382 106.953C1.636 107.626 1.50081 108.299 1.37838 108.97C1.32885 109.242 1.50893 109.502 1.7806 109.552C1.78133 109.552 1.78207 109.552 1.78281 109.552C1.48931 111.249 1.27839 112.938 1.15215 114.619C1.15133 114.619 1.15051 114.619 1.14969 114.619C0.874132 114.601 0.636188 114.81 0.618226 115.085C0.573494 115.771 0.542799 116.456 0.526292 117.14C0.519621 117.416 0.738007 117.645 1.01407 117.652C1.01492 117.652 1.01577 117.652 1.01662 117.652C0.992777 119.364 1.05938 121.065 1.21873 122.754C1.21783 122.754 1.21693 122.754 1.21602 122.754C0.9414 122.783 0.742228 123.029 0.771158 123.304C0.843048 123.986 0.93001 124.667 1.0322 125.345C1.07336 125.618 1.32808 125.806 1.60113 125.765C1.60204 125.764 1.60295 125.764 1.60386 125.764C1.87565 127.441 2.24216 129.104 2.70571 130.75C2.70482 130.75 2.70392 130.75 2.70303 130.751C2.43808 130.828 2.2864 131.106 2.36424 131.371C2.46121 131.701 2.56207 132.031 2.66684 132.359C2.7716 132.688 2.87996 133.015 2.99189 133.34C3.08173 133.601 3.36624 133.74 3.62736 133.651C3.62824 133.65 3.62912 133.65 3.63 133.65C4.20426 135.26 4.86755 136.828 5.61657 138.353C5.61574 138.354 5.61492 138.354 5.6141 138.355C5.36759 138.479 5.26864 138.78 5.3931 139.026C5.70213 139.638 6.0249 140.243 6.36118 140.842C6.4965 141.082 6.80134 141.168 7.04205 141.032C7.04284 141.032 7.04363 141.032 7.04442 141.031C7.89158 142.5 8.82195 143.927 9.83228 145.309C9.83159 145.31 9.83091 145.31 9.83023 145.311C9.60895 145.476 9.56348 145.789 9.72867 146.011C10.1376 146.558 10.5589 147.099 10.9925 147.633C11.1666 147.847 11.4815 147.88 11.6958 147.706C11.6965 147.705 11.6971 147.705 11.6978 147.704C12.7734 149.002 13.9232 150.258 15.1441 151.471C15.1436 151.472 15.1431 151.472 15.1425 151.473C14.9496 151.67 14.9534 151.987 15.1511 152.18C15.6395 152.657 16.1389 153.127 16.6491 153.59C16.8534 153.776 17.1697 153.761 17.3554 153.557C17.3558 153.556 17.3563 153.555 17.3568 153.555C18.6088 154.673 19.9248 155.752 21.3022 156.79C21.3018 156.791 21.3014 156.791 21.301 156.792C21.1365 157.013 21.1829 157.327 21.4046 157.491C21.9544 157.899 22.5135 158.301 23.0819 158.696C23.3086 158.854 23.6202 158.798 23.7778 158.571C23.7782 158.571 23.7785 158.57 23.7789 158.57C25.1603 159.515 26.596 160.425 28.0838 161.297C28.0836 161.297 28.0833 161.297 28.083 161.298C27.9449 161.537 28.0269 161.843 28.266 161.981C28.8553 162.321 29.4524 162.656 30.0574 162.984C30.3 163.116 30.6036 163.026 30.7354 162.784C30.7356 162.783 30.7359 162.783 30.7361 162.782C32.218 163.575 33.7463 164.334 35.3191 165.059C35.3189 165.059 35.3187 165.059 35.3185 165.06C35.2044 165.311 35.3157 165.608 35.5672 165.722C36.1812 166 36.8018 166.274 37.4288 166.542C37.6827 166.65 37.9765 166.533 38.0851 166.279C38.0853 166.278 38.0854 166.278 38.0856 166.277C39.6339 166.93 41.2214 167.55 42.8465 168.139C42.8464 168.139 42.8463 168.139 42.8461 168.14C42.7534 168.4 42.889 168.686 43.1491 168.779C43.7912 169.007 44.439 169.231 45.0924 169.45C45.3542 169.538 45.6376 169.397 45.7253 169.135C45.7255 169.135 45.7256 169.135 45.7257 169.134C47.3195 169.66 48.9466 170.157 50.6055 170.624C50.6054 170.624 50.6053 170.624 50.6052 170.625C50.5316 170.891 50.6876 171.166 50.9537 171.24C51.6063 171.42 52.2637 171.596 52.9257 171.768C53.1931 171.837 53.4659 171.677 53.5351 171.409C53.5352 171.409 53.5353 171.409 53.5354 171.408C55.1669 171.824 56.8271 172.212 58.5144 172.571C58.5143 172.571 58.5143 172.572 58.5142 172.572C58.4576 172.842 58.6309 173.107 58.9012 173.164C59.5672 173.303 60.2373 173.438 60.9115 173.569C61.1826 173.621 61.445 173.444 61.4975 173.173C61.4976 173.173 61.4976 173.173 61.4977 173.172C63.1512 173.487 64.8291 173.775 66.5302 174.037C66.5301 174.037 66.5301 174.037 66.5301 174.037C66.489 174.31 66.677 174.565 66.9501 174.606C67.6186 174.707 68.2906 174.803 68.966 174.896C69.2396 174.933 69.4918 174.742 69.5292 174.468C69.5293 174.468 69.5293 174.468 69.5293 174.467C71.2006 174.691 72.8928 174.889 74.605 175.063C74.605 175.063 74.605 175.063 74.6049 175.063C74.578 175.338 74.7789 175.583 75.0537 175.61C75.7326 175.677 76.4146 175.739 77.0996 175.798C77.3748 175.822 77.617 175.618 77.6406 175.343C77.6406 175.343 77.6406 175.342 77.6407 175.342C79.3224 175.482 81.0223 175.598 82.7393 175.69C82.7393 175.69 82.7393 175.69 82.7392 175.69C82.7252 175.966 82.9375 176.201 83.2132 176.215C83.8879 176.249 84.5652 176.28 85.2449 176.307C85.5209 176.318 85.7534 176.103 85.7643 175.827C85.7643 175.827 85.7643 175.826 85.7644 175.826C87.4522 175.888 89.1557 175.928 90.8737 175.945C90.8737 175.945 90.8738 175.945 90.8737 175.945C90.8718 176.222 91.094 176.447 91.3702 176.449C92.0473 176.454 92.7266 176.455 93.4081 176.453C93.6842 176.452 93.9074 176.227 93.9065 175.951C93.9065 175.951 93.9065 175.951 93.9065 175.951C95.5964 175.941 97.2998 175.909 99.0156 175.856C99.0156 175.856 99.0156 175.856 99.0156 175.856C99.0249 176.132 99.2562 176.349 99.5322 176.339C100.213 176.316 100.895 176.29 101.579 176.26C101.855 176.248 102.069 176.015 102.057 175.739C102.057 175.739 102.057 175.739 102.057 175.738C103.745 175.661 105.445 175.562 107.156 175.443C107.156 175.443 107.156 175.443 107.156 175.443C107.176 175.719 107.415 175.926 107.691 175.906C108.37 175.857 109.05 175.805 109.733 175.749C110.008 175.726 110.213 175.485 110.19 175.21C110.19 175.21 110.19 175.209 110.19 175.209C111.877 175.068 113.574 174.906 115.28 174.723C115.28 174.723 115.28 174.723 115.28 174.724C115.31 174.998 115.557 175.196 115.832 175.166C116.503 175.093 117.175 175.017 117.849 174.937C118.123 174.905 118.319 174.656 118.287 174.382C118.287 174.382 118.287 174.381 118.287 174.381C119.969 174.179 121.659 173.956 123.356 173.714C123.356 173.714 123.356 173.715 123.356 173.715C123.396 173.988 123.65 174.177 123.923 174.138C124.593 174.041 125.264 173.941 125.936 173.837C126.209 173.796 126.396 173.54 126.354 173.267C126.354 173.267 126.354 173.267 126.354 173.267C128.028 173.006 129.709 172.726 131.396 172.427C131.396 172.427 131.396 172.427 131.396 172.427C131.445 172.699 131.705 172.88 131.977 172.831C132.645 172.711 133.314 172.588 133.984 172.462C134.255 172.411 134.434 172.15 134.383 171.878C134.383 171.878 134.383 171.878 134.383 171.878C136.047 171.561 137.717 171.226 139.392 170.871C139.392 170.871 139.392 170.872 139.392 170.872C139.45 171.142 139.715 171.314 139.985 171.256C140.651 171.114 141.317 170.969 141.984 170.821C142.253 170.761 142.423 170.494 142.363 170.224C142.363 170.224 142.363 170.224 142.363 170.224C144.016 169.853 145.674 169.464 147.335 169.057C147.335 169.057 147.335 169.057 147.335 169.057C147.401 169.325 147.672 169.489 147.94 169.422C148.602 169.259 149.264 169.092 149.927 168.923C150.194 168.854 150.356 168.582 150.287 168.314C150.287 168.314 150.287 168.314 150.287 168.314C151.927 167.891 153.571 167.45 155.217 166.991C155.218 166.991 155.218 166.991 155.218 166.991C155.292 167.257 155.568 167.412 155.834 167.337C156.49 167.153 157.146 166.966 157.803 166.776C158.068 166.699 158.221 166.422 158.144 166.157C158.144 166.156 158.144 166.156 158.144 166.156C159.772 165.682 161.401 165.19 163.033 164.68C163.033 164.68 163.033 164.681 163.033 164.681C163.116 164.944 163.396 165.091 163.66 165.008C163.985 164.905 164.311 164.802 164.637 164.698C164.963 164.594 165.289 164.49 165.614 164.385C165.877 164.3 166.021 164.018 165.936 163.755C165.936 163.755 165.936 163.755 165.936 163.755C167.561 163.227 169.175 162.685 170.777 162.13C170.777 162.13 170.777 162.13 170.777 162.13C170.868 162.391 171.153 162.529 171.413 162.438C172.059 162.213 172.702 161.985 173.344 161.756C173.604 161.663 173.739 161.377 173.647 161.117C173.646 161.117 173.646 161.117 173.646 161.117C175.255 160.538 176.85 159.947 178.433 159.343C178.433 159.343 178.433 159.343 178.433 159.343C178.532 159.601 178.821 159.73 179.079 159.631C179.718 159.385 180.354 159.138 180.988 158.889C181.245 158.788 181.372 158.497 181.271 158.24C181.271 158.24 181.271 158.24 181.271 158.24C182.861 157.611 184.438 156.969 186.001 156.315C186.001 156.315 186.001 156.315 186.001 156.315C186.108 156.57 186.401 156.689 186.656 156.582C187.285 156.317 187.912 156.05 188.537 155.781C188.791 155.671 188.908 155.377 188.799 155.124C188.799 155.124 188.799 155.123 188.799 155.123C190.37 154.443 191.926 153.75 193.466 153.045C193.466 153.045 193.466 153.046 193.466 153.046C193.582 153.297 193.879 153.406 194.13 153.291C194.749 153.006 195.366 152.719 195.98 152.431C196.23 152.313 196.337 152.015 196.22 151.765C196.22 151.765 196.22 151.765 196.22 151.765C197.769 151.033 199.302 150.288 200.818 149.532C200.818 149.532 200.818 149.533 200.818 149.533C200.942 149.78 201.242 149.879 201.489 149.756C202.097 149.451 202.702 149.144 203.305 148.836C203.55 148.71 203.648 148.408 203.522 148.163C203.522 148.162 203.522 148.162 203.522 148.162C205.046 147.377 206.553 146.581 208.042 145.772C208.042 145.773 208.042 145.773 208.042 145.773C208.175 146.015 208.478 146.105 208.721 145.972C209.316 145.647 209.909 145.321 210.498 144.992C210.74 144.858 210.826 144.553 210.692 144.312C210.692 144.312 210.692 144.312 210.692 144.312C212.189 143.473 213.666 142.623 215.124 141.762C215.124 141.763 215.124 141.763 215.125 141.763C215.266 142 215.572 142.079 215.81 141.938C216.398 141.588 216.984 141.237 217.566 140.884C217.802 140.741 217.877 140.434 217.734 140.197C217.734 140.197 217.734 140.197 217.734 140.197C219.198 139.305 220.642 138.401 222.064 137.487C222.064 137.487 222.064 137.488 222.064 137.488C222.214 137.72 222.523 137.786 222.755 137.636C223.33 137.265 223.902 136.891 224.47 136.516C224.701 136.364 224.764 136.054 224.612 135.823C224.612 135.823 224.612 135.823 224.612 135.823C226.042 134.874 227.45 133.914 228.833 132.944C228.834 132.944 228.834 132.944 228.834 132.944C228.993 133.17 229.305 133.224 229.531 133.065C230.088 132.672 230.641 132.278 231.19 131.882C231.414 131.721 231.465 131.409 231.304 131.184C231.304 131.184 231.304 131.184 231.303 131.184C232.695 130.176 234.061 129.158 235.402 128.13C235.402 128.131 235.402 128.131 235.402 128.131C235.571 128.35 235.885 128.39 236.103 128.222C236.642 127.806 237.177 127.39 237.707 126.971C237.924 126.8 237.961 126.486 237.79 126.269C237.79 126.269 237.79 126.269 237.79 126.268C239.137 125.2 240.456 124.122 241.747 123.035C241.747 123.035 241.747 123.035 241.747 123.035C241.926 123.246 242.241 123.272 242.452 123.094C242.977 122.649 243.497 122.203 244.012 121.756C244.22 121.575 244.242 121.259 244.061 121.051C244.061 121.05 244.061 121.05 244.061 121.05C245.357 119.918 246.622 118.777 247.856 117.627C247.856 117.627 247.856 117.628 247.856 117.628C248.045 117.829 248.362 117.84 248.563 117.651C249.06 117.184 249.553 116.717 250.04 116.248C250.239 116.056 250.245 115.74 250.053 115.541C250.053 115.541 250.053 115.54 250.052 115.54C251.288 114.342 252.49 113.136 253.657 111.923C253.657 111.923 253.657 111.924 253.657 111.924C253.857 112.114 254.173 112.107 254.364 111.907C254.838 111.411 255.307 110.913 255.769 110.414C255.957 110.211 255.945 109.895 255.742 109.707C255.742 109.707 255.742 109.707 255.742 109.707C256.91 108.437 258.039 107.16 259.129 105.877C259.13 105.877 259.13 105.877 259.13 105.877C259.341 106.055 259.657 106.029 259.835 105.817C260.275 105.294 260.71 104.77 261.137 104.245C261.312 104.031 261.28 103.716 261.065 103.542C261.065 103.542 261.065 103.542 261.065 103.541C262.147 102.201 263.187 100.854 264.183 99.5028C264.183 99.5031 264.183 99.5033 264.183 99.5035C264.407 99.6663 264.719 99.6173 264.882 99.3943C265.288 98.8376 265.687 98.28 266.078 97.7217C266.236 97.4956 266.182 97.1838 265.955 97.0253C265.955 97.0251 265.955 97.0249 265.954 97.0246C266.939 95.6044 267.875 94.1797 268.76 92.7517C268.761 92.752 268.761 92.7522 268.761 92.7524C268.997 92.8967 269.305 92.8227 269.449 92.5873C269.805 92.0058 270.153 91.4237 270.492 90.8412C270.632 90.6026 270.551 90.2965 270.312 90.1575C270.312 90.1572 270.311 90.157 270.311 90.1568C271.175 88.656 271.982 87.1527 272.731 85.6482C272.732 85.6484 272.732 85.6486 272.733 85.6489C272.981 85.7705 273.28 85.6681 273.402 85.4201C273.705 84.802 273.998 84.1837 274.282 83.5652C274.397 83.3142 274.287 83.0174 274.036 82.9023C274.036 82.9021 274.035 82.9019 274.035 82.9016C274.743 81.3295 275.388 79.7572 275.968 78.1865C275.968 78.1867 275.969 78.1869 275.969 78.1871C276.229 78.2807 276.516 78.146 276.609 77.8863C276.844 77.235 277.068 76.5839 277.28 75.9331C277.365 75.6705 277.222 75.3883 276.959 75.3027C276.959 75.3025 276.958 75.3023 276.958 75.3021C277.48 73.658 277.929 72.0168 278.303 70.3804C278.304 70.3806 278.305 70.3807 278.305 70.3809C278.575 70.4401 278.842 70.2695 278.901 69.9998C279.049 69.3266 279.184 68.6541 279.306 67.9825C279.356 67.7108 279.176 67.4505 278.904 67.4009C278.903 67.4008 278.903 67.4007 278.902 67.4005C279.195 65.7044 279.406 64.0147 279.532 62.3339C279.533 62.334 279.534 62.334 279.535 62.3341C279.81 62.352 280.048 62.1432 280.066 61.8676C280.111 61.1814 280.142 60.4966 280.158 59.8133C280.165 59.5372 279.947 59.308 279.671 59.3013C279.67 59.3013 279.669 59.3013 279.668 59.3013C279.692 57.589 279.625 55.8874 279.466 54.1989C279.467 54.1988 279.468 54.1987 279.469 54.1986C279.743 54.1697 279.942 53.9236 279.913 53.649C279.842 52.9666 279.755 52.2863 279.652 51.6082C279.611 51.3352 279.357 51.1472 279.083 51.1883C279.083 51.1885 279.082 51.1886 279.081 51.1888C278.809 49.5114 278.442 47.8487 277.979 46.2031C277.98 46.2028 277.981 46.2025 277.982 46.2023C278.247 46.1244 278.398 45.8466 278.32 45.5816C278.223 45.2515 278.123 44.9221 278.018 44.5935C277.913 44.2648 277.805 43.9378 277.693 43.6125Z" stroke="#E1F47B" stroke-linecap="round" stroke-linejoin="round" stroke-dasharray="2 6"/>
</svg>
