<svg width="315" height="89" viewBox="0 0 315 89" fill="none" xmlns="http://www.w3.org/2000/svg">
<path d="M312.013 29.882C313.167 31.7086 313.889 33.5972 314.15 35.5413L313.654 35.6077C313.697 35.9297 313.727 36.2532 313.744 36.5783C313.761 36.9033 313.764 37.2282 313.754 37.5529L314.253 37.5684C314.193 39.5289 313.667 41.4814 312.706 43.4163L312.258 43.1937C311.973 43.7662 311.649 44.3385 311.285 44.9102L311.707 45.1787C310.699 46.7619 309.402 48.3312 307.831 49.8811L307.48 49.5252C307.022 49.977 306.54 50.4275 306.035 50.8767L306.367 51.2505C304.945 52.514 303.342 53.7633 301.567 54.9956L301.282 54.5849C300.733 54.9655 300.168 55.3447 299.586 55.7223L299.859 56.1417C298.244 57.1897 296.504 58.2245 294.646 59.2441L294.405 58.8057C293.816 59.1292 293.214 59.4512 292.6 59.7717L292.831 60.2149C291.105 61.1162 289.285 62.005 287.375 62.88L287.167 62.4254C286.56 62.7036 285.944 62.9804 285.318 63.2558L285.52 63.7134C283.712 64.5097 281.829 65.294 279.874 66.0651L279.691 65.5999C279.077 65.8423 278.455 66.0834 277.827 66.3232L278.005 66.7903C276.156 67.4959 274.246 68.1899 272.279 68.8715L272.115 68.3991C271.476 68.6205 270.831 68.8407 270.179 69.0595L270.339 69.5334C268.452 70.1672 266.515 70.7899 264.529 71.4007L264.382 70.9228C263.748 71.118 263.108 71.312 262.464 71.5047L262.607 71.9837C260.697 72.5551 258.744 73.1155 256.75 73.6646L256.617 73.1825C255.968 73.3611 255.315 73.5385 254.658 73.7146L254.788 74.1976C252.857 74.7149 250.889 75.2217 248.886 75.7174L248.766 75.232C248.106 75.3953 247.443 75.5574 246.775 75.7183L246.892 76.2043C244.947 76.6731 242.969 77.1314 240.961 77.579L240.852 77.0909C240.199 77.2365 239.542 77.381 238.882 77.5243L238.988 78.0129C237.026 78.4389 235.036 78.8546 233.018 79.2596L232.919 78.7694C232.262 78.9013 231.602 79.0321 230.939 79.1617L231.035 79.6524C229.063 80.0381 227.065 80.4136 225.043 80.7786L224.954 80.2866C224.292 80.4063 223.626 80.5248 222.958 80.6422L223.045 81.1347C221.064 81.4827 219.061 81.8208 217.036 82.1484L216.956 81.6548C216.289 81.7628 215.619 81.8697 214.947 81.9754L215.025 82.4693C213.037 82.782 211.03 83.0846 209.003 83.377L208.931 82.8821C208.261 82.9789 207.588 83.0745 206.913 83.169L206.982 83.6642C204.989 83.9433 202.977 84.2124 200.949 84.4713L200.886 83.9753C200.212 84.0613 199.537 84.1461 198.86 84.2298L198.921 84.726C196.923 84.9729 194.908 85.2099 192.878 85.4367L192.823 84.9398C192.149 85.0151 191.473 85.0894 190.795 85.1624L190.849 85.6595C188.845 85.8757 186.827 86.0819 184.795 86.2778L184.746 85.7801C184.073 85.8451 183.398 85.909 182.721 85.9717L182.767 86.4696C180.757 86.6558 178.735 86.8321 176.7 86.9982L176.659 86.4999C175.985 86.5549 175.31 86.6087 174.634 86.6615L174.673 87.16C172.658 87.317 170.633 87.464 168.596 87.6008L168.562 87.1019C167.888 87.1472 167.213 87.1913 166.536 87.2343L166.568 87.7333C164.551 87.8616 162.523 87.9798 160.485 88.0876L160.458 87.5883C160.254 87.5991 160.05 87.6098 159.846 87.6204C159.728 87.6266 159.609 87.6327 159.49 87.6388C159.473 87.6397 159.456 87.6405 159.439 87.6414C159.1 87.6588 158.76 87.6759 158.421 87.6926L158.445 88.192C156.407 88.2927 154.378 88.3822 152.357 88.4606L152.338 87.9609C151.661 87.9872 150.984 88.0123 150.309 88.036L150.327 88.5357C148.287 88.6076 146.257 88.6682 144.237 88.7176L144.225 88.2177C143.546 88.2343 142.869 88.2497 142.193 88.2638L142.204 88.7637C140.163 88.8062 138.132 88.8373 136.114 88.8572L136.109 88.3572C135.43 88.3639 134.751 88.3693 134.075 88.3734L134.078 88.8734C132.036 88.8859 130.007 88.8869 127.992 88.8764L127.994 88.3764C127.313 88.3729 126.633 88.3681 125.955 88.362L125.95 88.862C123.908 88.8436 121.88 88.8134 119.867 88.7718L119.877 88.2719C119.195 88.2578 118.514 88.2424 117.836 88.2256L117.823 88.7255C115.779 88.675 113.751 88.6126 111.739 88.5385L111.758 88.0389C111.077 88.0138 110.397 87.9873 109.72 87.9596L109.7 88.4591C107.654 88.3752 105.626 88.2791 103.617 88.1709L103.643 87.6716C102.964 87.6351 102.287 87.5972 101.612 87.5579L101.583 88.057C99.5356 87.9378 97.5083 87.8061 95.5024 87.662L95.5382 87.1633C94.8617 87.1147 94.1875 87.0647 93.5159 87.0133L93.4778 87.5119C91.4292 87.3552 89.4037 87.1855 87.4022 87.0032L87.4475 86.5053C86.7749 86.444 86.105 86.3813 85.4379 86.3172L85.39 86.8149C83.3413 86.618 81.3187 86.4076 79.3235 86.1842L79.3791 85.6873C78.708 85.6121 78.04 85.5355 77.3751 85.4573L77.3167 85.9539C75.2731 85.7138 73.2591 85.4597 71.2762 85.192L71.3431 84.6965C70.6625 84.6046 69.9857 84.5111 69.3126 84.416L69.2426 84.9111C67.1994 84.6226 65.1904 84.3193 63.2171 84.0017L63.2965 83.5081C62.6247 83.4 61.9571 83.2902 61.2937 83.1787L61.2109 83.6718C59.1711 83.3292 57.171 82.9711 55.2126 82.5977L55.3062 82.1066C54.6454 81.9806 53.9894 81.8529 53.3382 81.7235L53.2408 82.214C51.2032 81.8091 49.2126 81.3874 47.2711 80.9495L47.3811 80.4618C46.7109 80.3106 46.0465 80.1575 45.3881 80.0025L45.2735 80.4892C43.2468 80.0119 41.2763 79.5165 39.3647 79.0034L39.4943 78.5205C38.8446 78.3462 38.2019 78.1698 37.566 77.9914L37.431 78.4728C35.4082 77.9052 33.4552 77.3173 31.5751 76.7098L31.7289 76.234C31.0787 76.0239 30.4373 75.8114 29.8049 75.5967L29.6442 76.0701C27.6553 75.3947 25.7541 74.6963 23.9446 73.9759L24.1296 73.5114C23.4862 73.2553 22.8546 72.9964 22.235 72.7348L22.0405 73.1954C20.0874 72.3709 18.2514 71.5191 16.5381 70.6414L16.7661 70.1964C16.1488 69.8802 15.5478 69.5607 14.9635 69.238L14.7218 69.6757C12.8299 68.6311 11.1077 67.5519 9.56438 66.4402L9.85662 66.0345C9.30792 65.6393 8.78265 65.2402 8.28116 64.8376L7.96812 65.2275C6.24752 63.846 4.79685 62.4173 3.63268 60.9453L4.02486 60.6351C3.60445 60.1035 3.22331 59.5674 2.88189 59.0269L2.45917 59.294C1.30525 57.4674 0.583124 55.5788 0.322489 53.6347L0.818056 53.5683C0.774889 53.2463 0.744919 52.9228 0.728283 52.5977C0.711647 52.2727 0.708434 51.9478 0.718506 51.6231L0.218746 51.6076C0.279558 49.6471 0.805109 47.6946 1.76653 45.7598L2.2143 45.9823C2.49876 45.4098 2.82318 44.8375 3.18712 44.2658L2.76533 43.9973C3.77314 42.4141 5.07038 40.8448 6.64095 39.2949L6.99216 39.6508C7.44993 39.199 7.93172 38.7485 8.4372 38.2993L8.10507 37.9255C9.52686 36.662 11.1299 35.4127 12.9052 34.1804L13.1903 34.5911C13.7387 34.2105 14.3039 33.8313 14.8857 33.4537L14.6135 33.0343C16.2282 31.9863 17.9677 30.9515 19.8264 29.9319L20.0669 30.3703C20.6565 30.0468 21.2584 29.7248 21.8723 29.4043L21.6409 28.9611C23.3673 28.0598 25.1873 27.171 27.0968 26.296L27.3051 26.7506C27.9123 26.4724 28.5286 26.1956 29.1539 25.9202L28.9524 25.4626C30.7606 24.6663 32.6434 23.882 34.5977 23.111L34.7812 23.5761C35.3955 23.3337 36.0169 23.0926 36.6453 22.8528L36.4671 22.3857C38.3164 21.6801 40.226 20.9861 42.1934 20.3045L42.3571 20.7769C42.9962 20.5555 43.6415 20.3353 44.2928 20.1165L44.1335 19.6426C46.0202 19.0088 47.9573 18.3861 49.943 17.7753L50.09 18.2532C50.7246 18.058 51.3641 17.864 52.0086 17.6713L51.8653 17.1923C53.7754 16.6209 55.7284 16.0605 57.7226 15.5114L57.8553 15.9935C58.5039 15.8149 59.1568 15.6375 59.8141 15.4614L59.6846 14.9784C61.6152 14.4611 63.5828 13.9543 65.5859 13.4586L65.706 13.944C66.3659 13.7807 67.0296 13.6186 67.6972 13.4577L67.5801 12.9717C69.5254 12.5029 71.5029 12.0446 73.5113 11.597L73.6201 12.0851C74.2735 11.9395 74.9302 11.795 75.5902 11.6517L75.4841 11.1631C77.4461 10.7371 79.4367 10.3214 81.4545 9.91637L81.5529 10.4066C82.21 10.2747 82.87 10.1439 83.5329 10.0143L83.4369 9.52361C85.4094 9.13791 87.407 8.76237 89.4289 8.39736L89.5177 8.88941C90.1806 8.76973 90.8461 8.65119 91.5141 8.53379L91.4276 8.04133C93.4083 7.69325 95.4115 7.35524 97.4362 7.02762L97.5161 7.5212C98.1834 7.41321 98.8531 7.30635 99.5252 7.20063L99.4475 6.70671C101.435 6.39403 103.443 6.09135 105.469 5.79898L105.541 6.29386C106.212 6.19709 106.885 6.10145 107.56 6.00695L107.49 5.51178C109.484 5.23271 111.495 4.96359 113.523 4.70471L113.587 5.20069C114.26 5.11474 114.935 5.02992 115.613 4.94625L115.551 4.45002C117.55 4.20309 119.564 3.96608 121.594 3.73927L121.649 4.23618C122.323 4.16085 122.999 4.08665 123.677 4.01358L123.623 3.51646C125.627 3.30034 127.646 3.09415 129.678 2.89817L129.726 3.39586C130.399 3.33088 131.075 3.26702 131.751 3.2043L131.705 2.70643C133.715 2.52016 135.738 2.34385 137.773 2.17777L137.813 2.67611C138.487 2.62112 139.162 2.56726 139.839 2.51452L139.8 2.01603C141.814 1.859 143.84 1.71199 145.876 1.57522L145.91 2.0741C146.584 2.02884 147.259 1.9847 147.936 1.94169L147.904 1.4427C149.922 1.31444 151.95 1.19625 153.987 1.08835L154.014 1.58765C154.353 1.56969 154.693 1.552 155.033 1.53461C155.373 1.51722 155.712 1.50013 156.052 1.48336L156.027 0.983974C158.065 0.883272 160.095 0.79381 162.115 0.715433L162.134 1.21506C162.811 1.18878 163.488 1.16374 164.163 1.13995L164.145 0.640263C166.185 0.568377 168.216 0.50781 170.235 0.4584L170.248 0.95825C170.926 0.941656 171.603 0.926322 172.279 0.912241L172.268 0.412349C174.31 0.369817 176.34 0.338707 178.358 0.318844L178.363 0.81882C179.042 0.812132 179.721 0.80672 180.398 0.802579L180.394 0.302587C182.436 0.290095 184.465 0.289146 186.48 0.299559L186.478 0.799552C187.159 0.803073 187.839 0.807893 188.518 0.814007L188.522 0.314027C190.564 0.332433 192.592 0.36255 194.606 0.404186L194.595 0.904079C195.277 0.918188 195.958 0.933621 196.637 0.950371L196.649 0.450522C198.693 0.500973 200.721 0.563356 202.733 0.63747L202.714 1.13713C203.396 1.16223 204.075 1.18867 204.752 1.21645L204.772 0.716871C206.818 0.800806 208.846 0.896948 210.856 1.00508L210.829 1.50436C211.508 1.54092 212.185 1.57885 212.86 1.61814L212.889 1.11899C214.937 1.2382 216.964 1.36995 218.97 1.514L218.934 2.01271C219.611 2.0613 220.285 2.11128 220.956 2.16266L220.994 1.66412C223.043 1.82082 225.069 1.99046 227.07 2.17277L227.025 2.67071C227.697 2.73198 228.367 2.79468 229.034 2.85881L229.082 2.3611C231.131 2.55803 233.153 2.76836 235.149 2.99183L235.093 3.48873C235.764 3.56389 236.432 3.64054 237.097 3.71867L237.155 3.22209C239.199 3.46223 241.213 3.71631 243.196 3.98402L243.129 4.47952C243.81 4.5714 244.486 4.66488 245.16 4.75995L245.23 4.26486C247.273 4.55345 249.282 4.85671 251.255 5.17428L251.176 5.66793C251.847 5.77605 252.515 5.88583 253.178 5.99726L253.261 5.50416C255.301 5.84677 257.301 6.20494 259.26 6.57826L259.166 7.06942C259.827 7.19538 260.483 7.32306 261.134 7.45245L261.231 6.96204C263.269 7.36693 265.26 7.78855 267.201 8.22645L267.091 8.7142C267.761 8.86537 268.426 9.01848 269.084 9.17351L269.199 8.68682C271.225 9.16407 273.196 9.65952 275.108 10.1726L274.978 10.6555C275.628 10.8299 276.27 11.0062 276.906 11.1846L277.041 10.7032C279.064 11.2708 281.017 11.8587 282.897 12.4662L282.743 12.942C283.393 13.1521 284.035 13.3646 284.667 13.5793L284.828 13.1059C286.817 13.7813 288.718 14.4797 290.528 15.2001L290.343 15.6646C290.986 15.9207 291.618 16.1796 292.237 16.4412L292.432 15.9806C294.385 16.8051 296.221 17.6569 297.934 18.5346L297.706 18.9796C298.323 19.2958 298.924 19.6153 299.509 19.938L299.75 19.5003C301.642 20.5449 303.364 21.6241 304.908 22.7358L304.616 23.1415C305.164 23.5367 305.69 23.9358 306.191 24.3384L306.504 23.9485C308.225 25.33 309.675 26.7587 310.84 28.2307L310.447 28.5409C310.868 29.0725 311.249 29.6086 311.59 30.1491L312.013 29.882Z" stroke="#E1F47B" stroke-dasharray="2 6"/>
</svg>
