<svg width="15" height="17" viewBox="0 0 15 17" fill="none" xmlns="http://www.w3.org/2000/svg">
<path d="M6 0.289083C6.09761 0.412726 6.15741 0.564041 6.17167 0.723479C6.18594 0.882916 6.154 1.04315 6.08 1.18347C5.50186 2.28996 5.19993 3.53024 5.202 4.79021C5.202 8.98174 8.48 12.3758 12.52 12.3758C13.047 12.3758 13.56 12.3185 14.053 12.209C14.2041 12.1749 14.3615 12.188 14.5056 12.2466C14.6497 12.3051 14.774 12.4067 14.863 12.5384C14.957 12.6755 15.0049 12.841 14.9993 13.0094C14.9937 13.1777 14.9349 13.3394 14.832 13.4693C14.0477 14.4736 13.0582 15.2828 11.9358 15.8379C10.8134 16.3929 9.58632 16.6799 8.344 16.6778C3.734 16.6778 0 12.8063 0 8.03627C0 4.44621 2.114 1.36693 5.124 0.0618378C5.27394 -0.00421781 5.44039 -0.0177754 5.59835 0.0232015C5.75631 0.0641785 5.89725 0.157477 6 0.289083V0.289083Z" fill="#E5E5E5"/>
</svg>
