<svg width="392" height="122" viewBox="0 0 392 122" fill="none" xmlns="http://www.w3.org/2000/svg">
<path d="M32.5583 121.695C24.7113 121.695 9.8153 121.163 0.904297 120.099V82.593C7.1553 85.519 27.6373 94.696 53.4393 94.696C57.1633 94.696 67.1383 94.031 67.1383 87.381C67.1383 82.992 60.7543 81.263 52.1093 79.002C32.6913 73.815 1.8353 65.569 1.8353 30.723C1.8353 3.99001 24.1793 0 41.4693 0C46.6563 0 62.0843 1.197 66.6063 1.862V40.166C61.1533 34.713 51.4443 27.398 35.2183 27.398C21.6523 27.398 8.3523 36.974 8.3523 45.22C8.3523 51.604 13.5393 53.067 18.0613 53.067C20.946 53.067 24.3123 52.7554 27.9379 52.4199L27.9379 52.4198C32.1687 52.0283 36.7525 51.604 41.3363 51.604C56.6313 51.604 71.5273 56.126 71.5273 82.726C71.5273 111.853 49.1833 121.695 32.5583 121.695ZM133.961 120.099H95.2584C91.6674 111.454 90.4704 104.139 90.4704 96.824C90.4704 81.13 96.9874 67.298 102.174 56.392C105.632 49.21 108.425 43.225 108.425 38.038C108.425 32.186 104.568 28.728 99.7804 28.728C92.9279 28.728 84.5572 33.7568 77.9543 37.7237C76.7397 38.4534 75.5849 39.1471 74.5104 39.767V1.862H150.187V39.9C147.128 37.24 135.424 27.797 126.247 27.797C115.075 27.797 114.011 42.294 114.011 52.668C114.011 77.805 123.321 100.016 133.961 120.099ZM138.62 120.099H171.205C163.624 105.336 160.565 91.77 160.565 79.8C160.565 44.156 189.825 28.063 201.928 28.063C204.987 28.063 207.381 29.526 207.381 33.516C207.381 37.9699 203.51 42.5528 198.564 48.4085L198.337 48.678L197.957 49.1389C189.35 59.5963 177.855 73.5617 177.855 92.435C177.855 100.681 179.983 109.725 185.303 120.099H230.656C214.696 86.583 209.908 48.811 209.908 1.862H152.851C156.974 8.911 159.102 22.211 159.102 36.841C159.102 61.4156 150.476 86.0893 142.383 109.236C141.103 112.897 139.837 116.52 138.62 120.099ZM263.493 120.099H232.105C237.691 101.612 241.149 81.13 241.149 58.786C241.149 38.703 238.489 19.019 232.637 1.862C237.159 1.064 246.602 0 258.705 0C283.443 0 309.112 5.71901 309.112 31.521C309.112 49.343 296.876 64.372 272.67 66.766C272.67 76.874 288.63 82.859 299.802 82.859C303.127 82.859 306.319 82.593 308.979 82.327V120.099C305.654 121.296 302.595 121.695 299.802 121.695C286.103 121.695 280.517 109.459 275.064 97.223C269.478 84.721 263.892 72.352 251.39 72.352C251.39 89.243 252.986 106.001 263.493 120.099ZM296.61 33.782C296.61 30.191 294.881 28.063 291.556 28.063C281.448 28.063 257.242 47.481 257.242 60.116C257.242 63.574 259.104 65.968 262.429 65.968C272.404 65.968 296.61 46.284 296.61 33.782ZM314.061 120.099H345.449C334.942 106.001 333.346 89.243 333.346 72.352C345.848 72.352 351.434 84.721 357.02 97.223C362.473 109.459 368.059 121.695 381.758 121.695C384.551 121.695 387.61 121.296 390.935 120.099V82.327C388.275 82.593 385.083 82.859 381.758 82.859C370.586 82.859 354.626 76.874 354.626 66.766C378.832 64.372 391.068 49.343 391.068 31.521C391.068 5.71901 365.399 0 340.661 0C328.558 0 319.115 1.064 314.593 1.862C320.445 19.019 323.105 38.703 323.105 58.786C323.105 81.13 319.647 101.612 314.061 120.099ZM373.512 28.063C376.837 28.063 378.566 30.191 378.566 33.782C378.566 46.284 354.36 65.968 344.385 65.968C341.06 65.968 339.198 63.574 339.198 60.116C339.198 47.481 363.404 28.063 373.512 28.063Z" fill="#E5E5E5"/>
<path d="M32.5583 121.695C24.7113 121.695 9.8153 121.163 0.904297 120.099V82.593C7.1553 85.519 27.6373 94.696 53.4393 94.696C57.1633 94.696 67.1383 94.031 67.1383 87.381C67.1383 82.992 60.7543 81.263 52.1093 79.002C32.6913 73.815 1.8353 65.569 1.8353 30.723C1.8353 3.99001 24.1793 0 41.4693 0C46.6563 0 62.0843 1.197 66.6063 1.862V40.166C61.1533 34.713 51.4443 27.398 35.2183 27.398C21.6523 27.398 8.3523 36.974 8.3523 45.22C8.3523 51.604 13.5393 53.067 18.0613 53.067C20.946 53.067 24.3123 52.7554 27.9379 52.4199L27.9379 52.4198C32.1687 52.0283 36.7525 51.604 41.3363 51.604C56.6313 51.604 71.5273 56.126 71.5273 82.726C71.5273 111.853 49.1833 121.695 32.5583 121.695ZM133.961 120.099H95.2584C91.6674 111.454 90.4704 104.139 90.4704 96.824C90.4704 81.13 96.9874 67.298 102.174 56.392C105.632 49.21 108.425 43.225 108.425 38.038C108.425 32.186 104.568 28.728 99.7804 28.728C92.9279 28.728 84.5572 33.7568 77.9543 37.7237C76.7397 38.4534 75.5849 39.1471 74.5104 39.767V1.862H150.187V39.9C147.128 37.24 135.424 27.797 126.247 27.797C115.075 27.797 114.011 42.294 114.011 52.668C114.011 77.805 123.321 100.016 133.961 120.099ZM138.62 120.099H171.205C163.624 105.336 160.565 91.77 160.565 79.8C160.565 44.156 189.825 28.063 201.928 28.063C204.987 28.063 207.381 29.526 207.381 33.516C207.381 37.9699 203.51 42.5528 198.564 48.4085L198.337 48.678L197.957 49.1389C189.35 59.5963 177.855 73.5617 177.855 92.435C177.855 100.681 179.983 109.725 185.303 120.099H230.656C214.696 86.583 209.908 48.811 209.908 1.862H152.851C156.974 8.911 159.102 22.211 159.102 36.841C159.102 61.4156 150.476 86.0893 142.383 109.236C141.103 112.897 139.837 116.52 138.62 120.099ZM263.493 120.099H232.105C237.691 101.612 241.149 81.13 241.149 58.786C241.149 38.703 238.489 19.019 232.637 1.862C237.159 1.064 246.602 0 258.705 0C283.443 0 309.112 5.71901 309.112 31.521C309.112 49.343 296.876 64.372 272.67 66.766C272.67 76.874 288.63 82.859 299.802 82.859C303.127 82.859 306.319 82.593 308.979 82.327V120.099C305.654 121.296 302.595 121.695 299.802 121.695C286.103 121.695 280.517 109.459 275.064 97.223C269.478 84.721 263.892 72.352 251.39 72.352C251.39 89.243 252.986 106.001 263.493 120.099ZM296.61 33.782C296.61 30.191 294.881 28.063 291.556 28.063C281.448 28.063 257.242 47.481 257.242 60.116C257.242 63.574 259.104 65.968 262.429 65.968C272.404 65.968 296.61 46.284 296.61 33.782ZM314.061 120.099H345.449C334.942 106.001 333.346 89.243 333.346 72.352C345.848 72.352 351.434 84.721 357.02 97.223C362.473 109.459 368.059 121.695 381.758 121.695C384.551 121.695 387.61 121.296 390.935 120.099V82.327C388.275 82.593 385.083 82.859 381.758 82.859C370.586 82.859 354.626 76.874 354.626 66.766C378.832 64.372 391.068 49.343 391.068 31.521C391.068 5.71901 365.399 0 340.661 0C328.558 0 319.115 1.064 314.593 1.862C320.445 19.019 323.105 38.703 323.105 58.786C323.105 81.13 319.647 101.612 314.061 120.099ZM373.512 28.063C376.837 28.063 378.566 30.191 378.566 33.782C378.566 46.284 354.36 65.968 344.385 65.968C341.06 65.968 339.198 63.574 339.198 60.116C339.198 47.481 363.404 28.063 373.512 28.063Z" stroke="#E5E5E5"/>
</svg>
