<svg width="16" height="17" viewBox="0 0 16 17" fill="none" xmlns="http://www.w3.org/2000/svg">
<path fill-rule="evenodd" clip-rule="evenodd" d="M8 0C8.26522 0 8.51957 0.109825 8.70711 0.305315C8.89464 0.500805 9 0.765947 9 1.04241V2.08482C9 2.36129 8.89464 2.62643 8.70711 2.82192C8.51957 3.01741 8.26522 3.12724 8 3.12724C7.73478 3.12724 7.48043 3.01741 7.29289 2.82192C7.10536 2.62643 7 2.36129 7 2.08482V1.04241C7 0.765947 7.10536 0.500805 7.29289 0.305315C7.48043 0.109825 7.73478 0 8 0V0ZM12 8.33929C12 9.44515 11.5786 10.5057 10.8284 11.2877C10.0783 12.0696 9.06087 12.5089 8 12.5089C6.93913 12.5089 5.92172 12.0696 5.17157 11.2877C4.42143 10.5057 4 9.44515 4 8.33929C4 7.23344 4.42143 6.17287 5.17157 5.39091C5.92172 4.60895 6.93913 4.16965 8 4.16965C9.06087 4.16965 10.0783 4.60895 10.8284 5.39091C11.5786 6.17287 12 7.23344 12 8.33929V8.33929ZM11.536 13.4992L12.243 14.2362C12.4316 14.4261 12.6842 14.5312 12.9464 14.5288C13.2086 14.5264 13.4594 14.4168 13.6448 14.2235C13.8302 14.0302 13.9354 13.7688 13.9377 13.4955C13.94 13.2222 13.8392 12.9588 13.657 12.7622L12.95 12.0253C12.7614 11.8354 12.5088 11.7303 12.2466 11.7327C11.9844 11.7351 11.7336 11.8447 11.5482 12.038C11.3628 12.2312 11.2576 12.4927 11.2553 12.766C11.253 13.0393 11.3538 13.3026 11.536 13.4992V13.4992ZM13.656 2.44237C13.8435 2.63785 13.9488 2.90295 13.9488 3.17936C13.9488 3.45577 13.8435 3.72086 13.656 3.91634L12.95 4.65333C12.8578 4.75289 12.7474 4.8323 12.6254 4.88693C12.5034 4.94156 12.3722 4.97032 12.2394 4.97152C12.1066 4.97273 11.9749 4.94635 11.852 4.89394C11.7291 4.84152 11.6175 4.76412 11.5236 4.66625C11.4297 4.56837 11.3555 4.45198 11.3052 4.32388C11.2549 4.19577 11.2296 4.0585 11.2307 3.92009C11.2319 3.78168 11.2595 3.6449 11.3119 3.51772C11.3643 3.39054 11.4405 3.27552 11.536 3.17936L12.243 2.44237C12.4305 2.24695 12.6848 2.13717 12.95 2.13717C13.2152 2.13717 13.4695 2.24695 13.657 2.44237H13.656ZM15 9.38171C15.2652 9.38171 15.5196 9.27188 15.7071 9.07639C15.8946 8.8809 16 8.61576 16 8.33929C16 8.06283 15.8946 7.79769 15.7071 7.6022C15.5196 7.40671 15.2652 7.29688 15 7.29688H14C13.7348 7.29688 13.4804 7.40671 13.2929 7.6022C13.1054 7.79769 13 8.06283 13 8.33929C13 8.61576 13.1054 8.8809 13.2929 9.07639C13.4804 9.27188 13.7348 9.38171 14 9.38171H15ZM8 13.5514C8.26522 13.5514 8.51957 13.6612 8.70711 13.8567C8.89464 14.0522 9 14.3173 9 14.5938V15.6362C9 15.9126 8.89464 16.1778 8.70711 16.3733C8.51957 16.5688 8.26522 16.6786 8 16.6786C7.73478 16.6786 7.48043 16.5688 7.29289 16.3733C7.10536 16.1778 7 15.9126 7 15.6362V14.5938C7 14.3173 7.10536 14.0522 7.29289 13.8567C7.48043 13.6612 7.73478 13.5514 8 13.5514V13.5514ZM3.05 4.65333C3.14284 4.75018 3.25308 4.82702 3.37441 4.87946C3.49574 4.9319 3.6258 4.95892 3.75715 4.95896C3.88849 4.95901 4.01857 4.93209 4.13993 4.87974C4.2613 4.82739 4.37159 4.75063 4.4645 4.65385C4.55741 4.55707 4.63112 4.44215 4.68143 4.31568C4.73174 4.1892 4.75766 4.05363 4.7577 3.91671C4.75775 3.77979 4.73192 3.6442 4.6817 3.51769C4.63148 3.39117 4.55784 3.27621 4.465 3.17936L3.757 2.44237C3.5684 2.25249 3.3158 2.14742 3.0536 2.14979C2.7914 2.15217 2.54059 2.2618 2.35518 2.45507C2.16977 2.64834 2.0646 2.90979 2.06233 3.18311C2.06005 3.45642 2.16084 3.71974 2.343 3.91634L3.05 4.65333V4.65333ZM4.464 13.4992L3.757 14.2362C3.5684 14.4261 3.3158 14.5312 3.0536 14.5288C2.7914 14.5264 2.54059 14.4168 2.35518 14.2235C2.16977 14.0302 2.0646 13.7688 2.06233 13.4955C2.06005 13.2222 2.16084 12.9588 2.343 12.7622L3.05 12.0253C3.2386 11.8354 3.4912 11.7303 3.7534 11.7327C4.0156 11.7351 4.26641 11.8447 4.45182 12.038C4.63723 12.2312 4.7424 12.4927 4.74467 12.766C4.74695 13.0393 4.64616 13.3026 4.464 13.4992V13.4992ZM2 9.38171C2.26522 9.38171 2.51957 9.27188 2.70711 9.07639C2.89464 8.8809 3 8.61576 3 8.33929C3 8.06283 2.89464 7.79769 2.70711 7.6022C2.51957 7.40671 2.26522 7.29688 2 7.29688H1C0.734784 7.29688 0.48043 7.40671 0.292893 7.6022C0.105357 7.79769 0 8.06283 0 8.33929C0 8.61576 0.105357 8.8809 0.292893 9.07639C0.48043 9.27188 0.734784 9.38171 1 9.38171H2Z" fill="#E5E5E5"/>
</svg>
