<svg width="39" height="37" viewBox="0 0 39 37" fill="none" xmlns="http://www.w3.org/2000/svg">
<g clip-path="url(#clip0_18_759)">
<path d="M16.0931 25.862L14.4785 27.3604C14.3507 27.4792 14.2236 27.6003 14.0981 27.7176C14.0281 27.7811 13.9071 27.9136 13.7998 27.9052C13.6926 27.8969 13.5959 27.7448 13.5237 27.6843C13.4081 27.5845 13.2783 27.5021 13.1387 27.4398C12.6114 27.209 12.0362 27.2522 11.4754 27.2613C10.9832 27.2703 10.3669 27.2461 10.0648 26.7921C9.86165 26.4894 9.73611 26.1201 9.5885 25.7856L9.09014 24.661C9.02851 24.5233 8.82613 24.4908 8.70591 24.5612C8.56287 24.6444 8.54385 24.8048 8.60548 24.9433L9.07569 26.0028C9.22253 26.3335 9.3496 26.6838 9.5322 26.9971C9.87002 27.5685 10.4688 27.7758 11.1049 27.8122C11.6839 27.8447 12.3223 27.7024 12.8731 27.9295C13.16 28.0468 13.3236 28.3495 13.6241 28.4335C13.9779 28.5334 14.2746 28.3124 14.5189 28.0861C15.1783 27.4777 15.8346 26.8672 16.488 26.2548C16.7543 26.0111 16.3563 25.6138 16.0931 25.862Z" fill="#1A1A1A"/>
<path d="M17.0655 24.9094C17.0219 24.8831 16.9715 24.87 16.9205 24.8719C16.8695 24.8738 16.8202 24.8905 16.7787 24.92C16.4203 24.4213 16.1905 23.8363 15.8154 23.3459C15.3764 22.7723 14.7898 22.3621 14.0411 22.378C13.7094 22.3848 13.3251 22.4757 13.0231 22.2948C12.7765 22.1472 12.6008 21.9013 12.3733 21.7272C12.2405 21.6219 12.085 21.5485 11.919 21.5128C11.7529 21.4771 11.5808 21.48 11.4161 21.5214C11.0458 21.6162 10.6865 21.7494 10.3441 21.9187C9.57657 22.2746 8.87648 22.7595 8.27456 23.352C8.24794 23.3764 8.22679 23.4062 8.2125 23.4393C8.19821 23.4724 8.1911 23.5082 8.19162 23.5442H8.18021C8.12969 23.5093 8.08302 23.4692 8.04097 23.4246C7.8287 23.1976 7.41175 23.5003 7.59968 23.7629C7.61489 23.7833 7.63011 23.8 7.64609 23.8181C7.65142 23.8234 7.6575 23.828 7.66283 23.834C7.69505 23.8715 7.73071 23.906 7.76935 23.9369C7.76679 23.9735 7.77195 24.0103 7.7845 24.0448C7.79704 24.0793 7.81669 24.1108 7.8422 24.1373C7.8677 24.1638 7.89848 24.1847 7.93258 24.1987C7.96668 24.2126 8.00334 24.2194 8.04021 24.2185H8.46782C8.52367 24.2176 8.57802 24.2004 8.62415 24.169C8.67027 24.1377 8.70612 24.0936 8.72727 24.0421C8.92162 23.996 9.11851 23.9611 9.31693 23.9377C9.66388 23.9065 10.0129 23.9687 10.3273 24.1178C10.6165 24.2601 10.8714 24.4591 11.1437 24.6294C11.1924 24.6596 11.2427 24.6884 11.2959 24.7164C11.2984 24.7758 11.3197 24.833 11.3567 24.8797C11.3937 24.9265 11.4446 24.9604 11.5021 24.9767C11.5592 24.9901 11.6191 24.9865 11.6741 24.9661C11.6741 24.9722 11.6741 24.9782 11.6794 24.9843C11.687 25.0131 11.6938 25.0426 11.6999 25.0721C11.6999 25.0789 11.7045 25.1031 11.7068 25.1152C11.7113 25.1606 11.7144 25.2068 11.7144 25.2522C11.7159 25.2822 11.7159 25.3122 11.7144 25.3422C11.7144 25.3498 11.7098 25.3839 11.7091 25.3982C11.6907 25.5021 11.6609 25.6036 11.62 25.7009C11.566 25.8281 11.668 25.9817 11.7829 26.0301C11.8453 26.0561 11.915 26.0588 11.9793 26.0378C12.0435 26.0168 12.0981 25.9736 12.1329 25.9159C12.1663 25.8621 12.2006 25.8092 12.2363 25.7577L12.2645 25.7199C12.2645 25.7199 12.2767 25.7032 12.2843 25.6926L12.2995 25.6737L12.3292 25.6366C12.4129 25.5372 12.5031 25.4434 12.5993 25.3559C12.6464 25.3142 12.6944 25.2734 12.7438 25.234L12.7804 25.2075L12.8564 25.1531C12.9678 25.0784 13.0842 25.0117 13.2049 24.9533C13.2476 24.928 13.2826 24.8916 13.3059 24.848C13.3292 24.8043 13.3401 24.7552 13.3373 24.7058C13.6082 24.7346 13.8775 24.8746 14.1202 24.9707L15.2547 25.4209C15.6952 25.5958 16.2217 25.7675 16.6638 25.6359C16.8334 25.7297 17.0328 25.5852 17.0579 25.4088C17.0961 25.3722 17.1317 25.333 17.1644 25.2915C17.2588 25.172 17.185 24.979 17.0655 24.9094ZM16.103 25.1145C15.8169 25.0615 15.5483 24.9419 15.2805 24.8352L14.2092 24.4099C13.8927 24.2851 13.5648 24.1337 13.2163 24.1428C12.8679 24.1519 12.581 24.3509 12.2439 24.4031C11.9837 24.4432 11.7365 24.3274 11.5181 24.2011C11.2647 24.0497 11.0311 23.8719 10.7763 23.7235C10.4958 23.5584 10.1857 23.4492 9.86323 23.4019C9.58506 23.3635 9.3025 23.3696 9.02628 23.4201C9.42674 23.0783 9.86563 22.7837 10.3342 22.5422C10.6336 22.3871 10.9447 22.2555 11.2647 22.1487C11.4215 22.0965 11.6041 22.0201 11.7722 22.0443C11.8843 22.0683 11.9876 22.1222 12.0712 22.2002C12.2919 22.3833 12.4707 22.6111 12.7164 22.7655C13.0139 22.9524 13.3624 22.9721 13.7056 22.9532C14.0251 22.9365 14.3424 22.9047 14.6399 23.047C14.9159 23.1894 15.1552 23.3932 15.3391 23.6426C15.702 24.1042 15.9333 24.6468 16.2521 25.1349C16.2004 25.1303 16.1479 25.1228 16.103 25.1145Z" fill="#1A1A1A"/>
<path d="M14.2751 15.4937C14.1442 15.4582 13.9502 15.5384 13.9296 15.689C13.8716 16.1327 13.72 16.5592 13.4848 16.9407C13.2496 17.3221 12.936 17.6499 12.5646 17.9025C12.1523 18.1757 11.6767 18.3073 11.2377 18.5268C10.7948 18.7327 10.446 19.0969 10.2608 19.5469C10.1658 19.7903 10.1235 20.0509 10.1366 20.3117C10.1497 20.5725 10.218 20.8276 10.3369 21.0604C10.4997 21.382 10.9836 21.099 10.8215 20.7789C10.7357 20.6035 10.6911 20.411 10.6911 20.2159C10.6911 20.0208 10.7357 19.8283 10.8215 19.6528C11.0209 19.2487 11.4112 19.0474 11.8106 18.8787C12.255 18.6963 12.6833 18.52 13.0668 18.2241C13.4143 17.9549 13.7117 17.6274 13.9456 17.2562C14.2171 16.826 14.3937 16.3434 14.4637 15.8403C14.4911 15.6882 14.4348 15.5376 14.2751 15.4937Z" fill="#1A1A1A"/>
<path d="M16.3754 19.9564C16.1844 19.603 15.858 19.3616 15.5544 19.1035L15.7157 19.0203C15.9934 18.8772 15.8002 18.3982 15.4996 18.5102C15.4325 18.5351 15.3613 18.5475 15.2896 18.5465L15.2189 18.5216C15.1665 18.497 15.1156 18.4692 15.0667 18.4383C15.0547 18.4129 15.0396 18.389 15.0218 18.3672C14.9153 18.2393 14.7616 18.2158 14.6064 18.2408C14.436 18.2658 14.3408 18.5163 14.439 18.651C14.4458 18.6608 14.4542 18.6691 14.4611 18.679L14.4664 18.716C14.4803 18.7629 14.5065 18.8053 14.5425 18.8386C14.6323 18.9431 14.7266 19.0437 14.824 19.1413C14.8366 19.1763 14.8559 19.2085 14.8811 19.2359C15.1679 19.5386 15.5415 19.7566 15.7986 20.0843C16.0269 20.3741 16.0528 20.81 15.7226 21.0423C15.6598 21.0811 15.6143 21.1423 15.5955 21.2134C15.5767 21.2844 15.5859 21.36 15.6214 21.4245C15.6975 21.5463 15.8816 21.6121 16.0056 21.5244C16.2516 21.355 16.4256 21.1008 16.4939 20.8111C16.5622 20.5214 16.52 20.2168 16.3754 19.9564V19.9564Z" fill="#1A1A1A"/>
<path d="M13.1003 20.4037C13.0163 20.1898 12.8781 20.0011 12.6993 19.8558C12.5165 19.7116 12.3108 19.5985 12.0906 19.5213C11.8555 19.4358 11.5847 19.4116 11.3648 19.5539C11.2581 19.628 11.1701 19.7255 11.1074 19.8389C11.0447 19.9522 11.0091 20.0784 11.0034 20.2077C10.9821 20.4938 11.1061 20.7654 11.221 21.0197C11.2588 21.0835 11.3204 21.1298 11.3924 21.1485C11.4644 21.1672 11.5409 21.1568 11.6052 21.1196C11.6118 21.1152 11.6182 21.1104 11.6242 21.1052C11.7582 21.1241 11.8928 21.14 12.0275 21.1461C12.1517 21.1578 12.2768 21.1578 12.4011 21.1461C12.4711 21.1824 12.5411 21.2218 12.6134 21.2513C12.7914 21.3307 13.0014 21.3224 13.1079 21.1325C13.2251 20.9221 13.1848 20.6194 13.1003 20.4037Z" fill="#1A1A1A"/>
<path d="M15.6271 20.6798C15.6261 20.6329 15.6133 20.5869 15.5899 20.5462C15.5664 20.5055 15.5331 20.4712 15.4929 20.4466C15.4527 20.422 15.407 20.4078 15.3598 20.4053C15.3127 20.4028 15.2657 20.4121 15.2231 20.4324C15.2117 20.4324 15.201 20.4324 15.1896 20.4278C15.1715 20.3549 15.1268 20.2912 15.0641 20.2492C14.9481 20.1702 14.8219 20.107 14.689 20.0616C14.6327 20.0437 14.5718 20.0469 14.5178 20.0706C14.4647 20.0201 14.4022 19.9805 14.3336 19.9541C14.261 19.9266 14.1825 19.9175 14.1054 19.9276C14.0505 19.9255 13.9956 19.9298 13.9418 19.9405C13.8203 19.9681 13.7097 20.0309 13.6239 20.1208C13.5381 20.2107 13.4809 20.3239 13.4594 20.446C13.3926 20.5234 13.3459 20.6158 13.3232 20.7152C13.3005 20.8147 13.3026 20.9181 13.3293 21.0166C13.4259 21.3586 13.7858 21.5032 14.116 21.5092C14.2789 21.5092 14.4394 21.4767 14.6007 21.4669C14.6388 21.4669 14.6768 21.4669 14.7141 21.4669C14.7323 21.4669 14.7514 21.4669 14.7704 21.4706L14.7962 21.4759C14.9059 21.5079 15.0213 21.5149 15.1341 21.4964C15.2155 21.476 15.2911 21.4374 15.3552 21.3835C15.4193 21.3296 15.4702 21.2618 15.5038 21.1853C15.5489 21.0956 15.5802 20.9997 15.5967 20.9008C15.6205 20.8297 15.6308 20.7547 15.6271 20.6798Z" fill="#1A1A1A"/>
<path d="M16.2285 17.6612L16.2339 17.6475C16.2324 17.6507 16.2311 17.654 16.23 17.6574L16.2285 17.6612Z" fill="#1A1A1A"/>
<path d="M16.6803 16.6448C16.6268 16.594 16.5557 16.5657 16.4817 16.5657C16.4078 16.5657 16.3366 16.594 16.2831 16.6448C15.9449 16.9492 15.7063 17.3475 15.5984 17.7883C15.5884 17.8236 15.5855 17.8606 15.5899 17.8971C15.5943 17.9336 15.6058 17.9689 15.6239 18.0009C15.642 18.033 15.6663 18.0612 15.6953 18.0839C15.7243 18.1066 15.7576 18.1234 15.7932 18.1333C15.8287 18.1433 15.8659 18.1462 15.9026 18.1418C15.9393 18.1374 15.9748 18.1259 16.007 18.1079C16.0392 18.09 16.0675 18.0658 16.0904 18.0369C16.1132 18.0081 16.1301 17.975 16.1401 17.9396C16.1622 17.8463 16.1912 17.7547 16.2268 17.6657L16.2208 17.6778C16.2236 17.6726 16.2261 17.6673 16.2284 17.6619C16.236 17.6422 16.236 17.6437 16.2322 17.652V17.6475L16.2641 17.5802C16.287 17.5355 16.3105 17.4924 16.3356 17.45C16.3608 17.4076 16.3859 17.3705 16.4117 17.3319C16.4239 17.3138 16.4376 17.2964 16.4505 17.2782L16.468 17.257C16.5317 17.1807 16.6009 17.1092 16.675 17.0429C16.7017 17.0171 16.723 16.9864 16.7378 16.9524C16.7525 16.9185 16.7603 16.8819 16.7608 16.8449C16.7613 16.8079 16.7545 16.7712 16.7407 16.7369C16.7268 16.7025 16.7063 16.6712 16.6803 16.6448Z" fill="#1A1A1A"/>
<path d="M24.0048 17.8526C23.8869 17.7353 23.7279 17.7588 23.6077 17.8526C23.5569 17.8955 23.5044 17.9364 23.4502 17.9752C23.4502 17.9518 23.4502 17.9283 23.4464 17.9048C23.4197 17.6619 23.1595 17.5393 22.967 17.7073C22.8326 17.8233 22.6779 17.9136 22.5105 17.9737L22.5166 17.9654C22.5427 17.9394 22.5634 17.9087 22.5775 17.8748C22.5916 17.8409 22.5988 17.8046 22.5988 17.7679C22.5988 17.7312 22.5916 17.6949 22.5775 17.661C22.5634 17.6271 22.5427 17.5963 22.5166 17.5704C22.4905 17.5444 22.4596 17.5238 22.4255 17.5098C22.3914 17.4958 22.3549 17.4885 22.318 17.4885C22.2811 17.4885 22.2446 17.4958 22.2105 17.5098C22.1765 17.5238 22.1455 17.5444 22.1194 17.5704C22.008 17.6638 21.871 17.7217 21.7261 17.7368C21.736 17.6975 21.7458 17.6574 21.7565 17.618C21.8326 17.3327 21.4955 17.1731 21.287 17.3464L21.2749 17.3547C21.2896 17.3017 21.2884 17.2455 21.2714 17.1932C21.2544 17.1409 21.2223 17.0947 21.1791 17.0604C21.1359 17.026 21.0835 17.0051 21.0285 17.0001C20.9734 16.9951 20.9181 17.0063 20.8693 17.0323C20.6938 17.1354 20.4972 17.1983 20.2941 17.2162L20.3025 17.1723C20.3512 16.9105 20.043 16.6903 19.833 16.9006C19.6611 17.0724 19.4199 17.1156 19.178 17.1216L19.2327 16.8514C19.2906 16.5624 18.9824 16.4095 18.7633 16.5798L18.0709 17.1156L17.6524 17.0686C17.6753 17.0495 17.6955 17.0273 17.7125 17.0028C17.7278 16.9793 17.7437 16.9581 17.7597 16.9362C17.8331 16.8457 17.9157 16.763 18.0062 16.6895C18.1065 16.6151 18.215 16.5524 18.3296 16.5026C18.3928 16.4656 18.4392 16.4056 18.4589 16.3353C18.4781 16.2628 18.468 16.1857 18.4308 16.1204C18.3934 16.0577 18.3332 16.0116 18.2626 15.9918L18.1866 15.9819C18.1369 15.9819 18.088 15.995 18.045 16.0198C17.7096 16.1695 17.4252 16.413 17.2264 16.7205C17.1917 16.7804 17.1803 16.8508 17.1943 16.9184C17.2083 16.986 17.2468 17.0462 17.3024 17.0875C17.2483 17.1262 17.2107 17.1837 17.1973 17.2487C17.1839 17.3136 17.1956 17.3812 17.2302 17.4379C17.4843 17.8874 17.794 18.3188 18.2353 18.6033C18.4817 18.7502 18.7454 18.8664 19.0205 18.9492C19.2966 19.0422 19.5744 19.1353 19.8574 19.2057C20.1441 19.2822 20.4393 19.3229 20.7362 19.3268C21.036 19.3268 21.3297 19.2625 21.6264 19.2314C22.1202 19.18 22.7045 19.354 23.1321 19.0294L23.1473 19.0165C23.2236 19.0078 23.2937 18.9707 23.3436 18.9128C23.3936 18.8548 23.4197 18.7803 23.4167 18.704L24.001 18.2499C24.0275 18.2241 24.0486 18.1933 24.0632 18.1594C24.0777 18.1254 24.0854 18.089 24.0857 18.0521C24.0861 18.0152 24.0791 17.9786 24.0652 17.9443C24.0514 17.9101 24.0308 17.879 24.0048 17.8526V17.8526ZM18.9406 18.0464C18.9242 18.1415 18.9242 18.2388 18.9406 18.3339C18.8239 18.285 18.7103 18.2292 18.6005 18.1667C18.3878 18.0381 18.2025 17.8695 18.0549 17.6703L19.0547 17.7823C18.9962 17.8601 18.9571 17.9506 18.9406 18.0464V18.0464ZM22.3051 18.6684C22.0693 18.654 21.8329 18.6563 21.5975 18.6752C21.3335 18.704 21.0717 18.7577 20.8054 18.7653C20.7234 18.7673 20.6414 18.7648 20.5597 18.7577C20.634 18.7078 20.6899 18.6351 20.7186 18.5506C20.7473 18.4661 20.7473 18.3745 20.7187 18.29C21.0854 18.4558 21.4628 18.5171 21.8645 18.5685C21.9113 18.6044 21.969 18.6234 22.0281 18.6222C22.0799 18.6222 22.1308 18.617 22.1803 18.6117C22.2716 18.626 22.362 18.6455 22.4512 18.6699C22.4047 18.6729 22.3561 18.6714 22.3051 18.6699V18.6684Z" fill="#1A1A1A"/>
<path d="M38.6735 21.5841C38.5784 21.5228 38.4688 21.4865 38.3692 21.4327C38.2695 21.379 38.2573 21.3631 38.2931 21.2625C38.3529 21.1431 38.4202 21.0276 38.4947 20.9166C38.5753 20.7747 38.6246 20.6174 38.6393 20.455C38.6575 20.1735 38.5662 19.8958 38.3844 19.6793C38.2943 19.5732 38.1835 19.4862 38.0587 19.4236C37.9385 19.3623 37.7772 19.3214 37.6928 19.2102C37.5474 19.0179 37.6167 18.6888 37.641 18.4693C37.6737 18.1921 37.6652 17.9116 37.6159 17.6369C37.4326 16.6773 36.6831 15.835 35.767 15.4816C35.7298 15.4627 35.691 15.443 35.656 15.4249C35.7762 15.1161 35.9154 14.8142 36.0288 14.4963C36.2672 13.8469 36.3077 13.142 36.1452 12.4697C36.1491 12.1902 36.0818 11.9143 35.9497 11.6676C35.7859 11.3901 35.5605 11.1535 35.2907 10.9759C34.803 10.456 34.1845 10.0398 33.5781 9.69397C33.5564 9.63609 33.5431 9.57545 33.5385 9.51387C33.5218 9.20057 33.6907 8.90392 33.7987 8.61938C33.9128 8.32122 33.9859 7.98901 33.8786 7.67798C33.7637 7.34577 33.4982 7.11571 33.2128 6.92879C32.5167 6.47474 31.7832 6.06988 31.0695 5.64231C30.896 5.53864 30.7218 5.43647 30.5491 5.33129C30.4083 5.25813 30.2835 5.1581 30.1816 5.03691C30.088 4.90599 30.1108 4.74707 30.0987 4.59496C30.0911 4.43658 30.0452 4.28237 29.9648 4.14545C29.6094 3.58318 28.7847 3.6914 28.2521 3.88513C27.8184 4.04178 27.3953 4.23929 26.97 4.41486L25.8561 4.88026C25.8423 4.7136 25.8735 4.54628 25.9465 4.39566C26.0196 4.24503 26.1318 4.11658 26.2716 4.02361C26.493 3.87832 26.7022 3.90556 26.9563 3.92524C27.269 3.95021 27.5863 3.86697 27.7316 3.56502C27.7797 3.43916 27.8161 3.30922 27.8404 3.17681C27.8762 3.04891 27.934 3.02545 28.0634 3.00729C28.3852 2.95735 28.6857 2.93162 28.9909 2.80902C29.5737 2.56762 30.015 2.09086 30.0819 1.45141C30.1063 1.23751 30.0753 1.02097 29.992 0.822318C29.9086 0.623662 29.7756 0.449475 29.6056 0.316274C29.5851 0.289787 29.5661 0.262544 29.5432 0.236058C29.3256 -0.00913034 28.9604 -0.0583196 28.6584 0.0483827C28.1714 0.0733556 27.7065 0.295842 27.2675 0.51303C27.1534 0.56903 27.0382 0.620741 26.9221 0.668165C26.742 0.641503 26.5581 0.663458 26.3895 0.731732C26.2236 0.79984 26.0638 0.874759 25.9079 0.951948C25.6796 0.991299 25.4513 1.02308 25.2231 1.05789C24.5685 1.14887 23.932 1.34007 23.3362 1.6247C22.2573 2.15443 21.364 2.9967 20.5826 3.89497C20.1725 4.36491 19.7875 4.85604 19.4056 5.34945C19.2215 5.58782 19.0388 5.82696 18.854 6.06534C18.7931 6.14101 18.7185 6.27723 18.612 6.2795C18.472 6.2795 18.2795 6.14253 18.1555 6.07896C17.9749 5.98438 17.7996 5.88004 17.6305 5.76642C17.6092 5.67636 17.5765 5.58328 17.5544 5.50685C17.4709 5.22321 17.3648 4.94663 17.2371 4.67972C16.9933 4.16028 16.667 3.68323 16.2708 3.26686C16.0999 3.07864 15.9139 2.90452 15.7147 2.74621C15.1623 1.87462 14.3609 1.18689 13.4131 0.771083C13.3492 0.742327 13.2845 0.716597 13.2191 0.690868C13.1813 0.658496 13.1402 0.630093 13.0966 0.606111C12.5694 0.309257 11.9515 0.213998 11.3588 0.33822C10.7998 0.338305 10.2444 0.426161 9.71302 0.598543C9.05105 0.806294 8.42174 1.10562 7.8436 1.48773C7.34828 1.82146 6.8697 2.25205 6.61177 2.80524C6.49601 3.05398 6.42887 3.32235 6.41395 3.59605C6.3742 3.63625 6.32976 3.67156 6.28156 3.70124C6.14649 3.66169 6.00933 3.62961 5.87069 3.60513C5.45655 3.54095 5.03652 3.52268 4.61832 3.55064C4.39069 3.5206 4.15979 3.52519 3.93355 3.56426C3.62712 3.62829 3.32988 3.72997 3.04868 3.86697C2.42673 4.07942 1.84499 4.39405 1.32762 4.79777C0.957853 5.05114 0.637839 5.36969 0.383394 5.73766C0.374264 5.75128 0.365894 5.76566 0.357525 5.77853C0.240211 5.94149 0.152408 6.12357 0.0980729 6.31658C-0.0647505 6.79863 -0.0617072 7.33441 0.42372 7.61593C1.04838 7.97841 1.87772 8.02079 2.56934 7.86717C2.91724 7.78942 3.24937 7.65354 3.5516 7.46533C3.69464 7.37603 3.82247 7.26328 3.96931 7.18004C4.01477 7.14837 4.06676 7.12717 4.12148 7.11798C4.12303 7.13662 4.12303 7.15535 4.12148 7.17398C4.0317 7.45852 3.72127 7.66587 3.5341 7.88911C3.31422 8.15171 3.14835 8.4529 3.20237 8.80554C3.26019 9.18014 3.5653 9.45635 3.92214 9.55851C4.3155 9.67051 4.72332 9.54641 5.04212 9.30727C5.21121 9.1765 5.36193 9.02379 5.49027 8.85322C5.53128 8.79284 5.58043 8.73835 5.63635 8.69127C5.66783 8.72591 5.70247 8.75758 5.73983 8.78587C5.92503 8.93417 6.16135 9.00428 6.39797 8.98111C6.30743 9.27171 6.28764 9.57138 6.43753 9.86576C6.65818 10.2964 7.19154 10.4507 7.59023 10.1579C7.98892 9.865 8.01555 9.39657 7.97903 8.94252C8.22479 9.16576 8.51848 9.11506 8.72543 8.93419H8.73228C8.96053 8.95538 9.57607 8.84111 9.38661 9.25581C9.35597 9.3201 9.31217 9.37731 9.25803 9.42381L9.2451 9.43289C9.23064 9.44273 9.21999 9.45408 9.20629 9.46468C9.11536 9.5267 9.01821 9.5792 8.9164 9.62133C8.70032 9.71819 8.47891 9.79916 8.28413 9.93614C7.89153 10.2124 7.6123 10.6013 7.34828 10.9956C7.02365 11.4799 6.69952 11.9647 6.3759 12.4501C6.06015 12.923 5.74896 13.3998 5.42712 13.869C5.32516 14.0203 5.20875 14.1641 5.02843 14.2148C4.87847 14.25 4.72254 14.2515 4.57191 14.2194C4.19148 14.1558 3.8179 14.0188 3.43063 14.0181C3.23196 14.0147 3.03569 14.0616 2.86017 14.1542C2.68466 14.2469 2.53564 14.3823 2.42706 14.5478C2.21402 14.8596 2.15163 15.269 1.88533 15.5452C1.61903 15.8214 1.27055 15.9713 1.03317 16.2618C0.902622 16.4135 0.822838 16.6018 0.804909 16.8007C0.782844 17.0625 0.920559 17.2941 0.935016 17.5514C0.971537 18.0811 0.640564 18.5858 0.585021 19.111C0.537087 19.5742 0.705237 20.06 1.14653 20.2726C1.53914 20.4611 1.99565 20.3786 2.22086 19.9858C2.32282 19.8072 2.34945 19.6075 2.52521 19.4856C2.70096 19.3638 2.87064 19.2624 2.99161 19.0792C3.18563 18.7856 3.19628 18.4262 3.31498 18.1045C3.32258 18.0841 3.33095 18.0652 3.33932 18.0463C3.37356 18.1318 3.40171 18.2211 3.43823 18.2998C3.50867 18.4616 3.63201 18.5949 3.78823 18.6782C4.0842 18.8295 4.5255 18.7856 4.62517 18.4148C4.63593 18.3693 4.63593 18.3219 4.62517 18.2763C4.67767 18.3656 4.66778 18.4451 4.60615 18.5677C4.43648 18.9067 4.10703 19.1988 3.79203 19.4001C3.45878 19.615 3.06237 19.7149 2.73977 19.9435C2.57238 20.0598 2.43548 20.2144 2.34056 20.3943C2.24564 20.5742 2.19546 20.7741 2.19423 20.9772C2.19423 21.7703 2.97031 22.359 3.73953 22.1759C4.10551 22.0889 4.40072 21.8369 4.66474 21.5826C4.83584 21.399 5.02298 21.2308 5.22397 21.0801C5.18899 21.181 5.14652 21.2791 5.0969 21.3737C4.98276 21.613 4.9058 21.8682 4.86865 22.1305C4.8071 22.6465 4.90925 23.1688 5.16082 23.6243C5.28255 23.8513 5.38451 24.0466 5.31831 24.3099C5.25212 24.5733 5.15701 24.8321 5.12277 25.1098C5.05962 25.61 5.15549 26.1398 5.49635 26.528C5.78852 26.8594 6.26254 27.0577 6.70079 26.9714C6.99296 28.0188 7.32621 29.053 7.70056 30.0741C7.81266 30.3768 7.92805 30.6783 8.04675 30.9784C8.15098 31.241 8.25446 31.5157 8.47435 31.7057C8.69423 31.8956 9.00695 31.9925 9.28923 32.0962C9.5715 32.1998 9.87356 32.305 10.1733 32.386C10.4856 32.4763 10.8063 32.5348 11.1305 32.5608C11.1316 33.2189 11.2314 33.8731 11.4265 34.5019C11.5411 34.8453 11.6146 35.2009 11.6456 35.5614C11.6575 35.9492 11.642 36.3373 11.5992 36.723C11.5855 36.8743 11.7377 37.0022 11.8799 37.0022C11.9539 37.0007 12.0244 36.9707 12.0767 36.9187C12.1291 36.8667 12.1591 36.7965 12.1607 36.723C12.2021 36.3484 12.2181 35.9714 12.2086 35.5946C12.186 35.2171 12.1178 34.8436 12.0055 34.4822C11.8168 33.8412 11.6905 33.2192 11.6928 32.5593C11.8134 32.5508 11.9336 32.5359 12.0527 32.5147C12.6317 32.4087 13.1742 32.1643 13.7098 31.9282C14.2656 31.6805 14.8406 31.478 15.4293 31.3228C16.0502 31.1616 16.6688 31.008 17.2699 30.7802C18.4789 30.3223 19.6506 29.7495 20.8261 29.2129C21.7095 28.8103 22.6141 28.3419 23.2061 27.5481C23.2471 27.4928 23.2821 27.4368 23.3209 27.3793C23.3612 27.5394 23.4329 27.69 23.5319 27.8225C23.6309 27.9549 23.7552 28.0667 23.8977 28.1512C23.9042 28.1731 23.9162 28.1929 23.9327 28.2087L23.9875 28.264C23.9997 28.2772 24.0152 28.2871 24.0323 28.2927C24.0491 28.3017 24.0681 28.3059 24.0871 28.3048C24.1059 28.3058 24.1246 28.3016 24.1412 28.2927C24.1524 28.2881 24.1627 28.2814 24.1716 28.2731C24.1997 28.2814 24.2271 28.292 24.256 28.2988C24.2999 28.3086 24.3444 28.3157 24.3892 28.32C24.1472 29.2094 23.9284 30.1041 23.7326 31.0042C23.6565 31.3546 24.1982 31.5044 24.2743 31.1555C24.4828 30.1929 24.7181 29.2367 24.9804 28.2867C24.986 28.2664 24.9896 28.2456 24.991 28.2246L25.0907 28.1838C25.2216 28.1278 25.3136 28.1043 25.4369 28.1906C25.5641 28.2925 25.6792 28.4085 25.78 28.5364C26.6763 29.5467 27.4539 30.7212 28.771 31.2229C29.3325 31.4363 29.9792 31.4893 30.5483 31.2706C31.0809 31.0662 31.5473 30.6833 31.7695 30.1506C31.8674 29.8949 31.9099 29.6215 31.8943 29.3484C31.8943 29.1796 31.8395 28.8618 32.0267 28.7695C32.1583 28.7044 32.3242 28.7105 32.4611 28.6492C32.5686 28.6022 32.6646 28.5328 32.7426 28.4456C32.9096 28.2389 33.0013 27.982 33.0029 27.7168C33.0295 27.1591 32.7807 26.6165 32.6179 26.0944C32.4444 25.5366 32.2686 24.9441 32.3272 24.3538C32.3496 24.1039 32.4368 23.864 32.5803 23.6576C32.7238 23.4512 32.9187 23.2854 33.1459 23.1763C33.2328 23.1359 33.3229 23.1025 33.4152 23.0764C33.6395 23.0598 33.8622 23.0272 34.0817 22.9788C34.2872 22.972 34.4926 22.9788 34.6904 22.9932C35.2847 23.0303 35.8743 23.1309 36.4701 23.1513C36.8358 23.164 37.202 23.1501 37.5657 23.1097C37.6684 23.1271 37.7719 23.1415 37.8761 23.1513C38.131 23.1748 38.3791 23.0318 38.5388 22.8252C38.739 22.6958 38.9193 22.5111 38.9809 22.278C39.0539 21.9958 38.9063 21.7324 38.6735 21.5841ZM23.2007 25.5707C23.1794 26.1125 23.1307 26.6377 22.8325 27.1061C22.5943 27.4807 22.2459 27.7774 21.8776 28.0203C20.976 28.6151 19.9321 29.0041 18.9521 29.4475C18.3868 29.7033 17.8245 29.9659 17.2463 30.1914C16.6781 30.4037 16.0972 30.5807 15.5069 30.7211C14.9217 30.8656 14.3488 31.0556 13.7935 31.2895C13.2776 31.5097 12.7709 31.7571 12.2277 31.904C11.6708 32.0497 11.0858 32.0518 10.5279 31.91C10.2271 31.836 9.93072 31.7456 9.63998 31.6391C9.39194 31.5506 9.06629 31.4802 8.86238 31.3054C8.65847 31.1306 8.59304 30.8226 8.50478 30.5948C8.39116 30.3042 8.2816 30.0123 8.17609 29.7192C7.96762 29.1436 7.77233 28.5634 7.59023 27.9787C7.22304 26.8294 6.91826 25.6613 6.6772 24.4794C6.64677 24.323 6.61862 24.1651 6.59275 24.0057C6.59221 23.4226 6.62294 22.8398 6.68481 22.2599C6.75042 21.5963 6.8664 20.9385 7.03176 20.2923C7.04774 20.2325 7.06448 20.1735 7.08274 20.1152C7.09644 20.0933 7.10861 20.0713 7.12307 20.0494C7.40687 19.6196 7.79034 19.2677 8.15555 18.9082C8.26968 18.7962 8.38381 18.6812 8.49109 18.5662L8.49717 18.5624C8.77294 18.3609 8.98622 18.0863 9.11271 17.7701C9.11651 17.764 9.12108 17.7579 9.12412 17.7519C9.14551 17.7176 9.15926 17.6792 9.16444 17.6391C9.20479 17.5221 9.23632 17.4022 9.25879 17.2804C9.27857 17.1752 9.29151 17.0693 9.3014 16.9634C9.53498 17.1268 9.86595 17.1904 10.1285 17.2456C10.5018 17.3231 10.8836 17.3521 11.2644 17.3319C12.0062 17.291 12.723 17.0822 13.4055 16.8022C13.5455 16.7447 13.6459 16.6175 13.6018 16.4594C13.5944 16.4355 13.5836 16.4128 13.5698 16.392C13.5994 16.3407 13.6126 16.2815 13.6074 16.2225C13.6022 16.1635 13.579 16.1075 13.5409 16.0621C13.6931 15.8895 13.5409 15.552 13.2533 15.608C13.1866 15.6192 13.1182 15.6148 13.0536 15.5949C12.989 15.5751 12.9299 15.5404 12.8812 15.4937C12.828 15.4424 12.7568 15.4137 12.6826 15.4137C12.6085 15.4137 12.5373 15.4424 12.4841 15.4937L12.462 15.5195C12.4137 15.5346 12.371 15.5636 12.3392 15.6027C12.3074 15.6419 12.2879 15.6895 12.2832 15.7397L12.2505 15.7344C12.2771 15.5573 12.1432 15.3628 11.9111 15.4218C11.8829 15.432 11.8523 15.4339 11.823 15.4272C11.7937 15.4205 11.767 15.4055 11.746 15.384C11.7054 15.3482 11.6555 15.3244 11.602 15.3152C11.5485 15.3061 11.4935 15.312 11.4432 15.3323C11.3929 15.3526 11.3493 15.3865 11.3173 15.4301C11.2853 15.4737 11.2662 15.5254 11.2621 15.5793C11.1692 15.5793 11.0789 15.549 11.005 15.493C10.8802 15.3916 10.6458 15.3696 10.5644 15.549C10.5363 15.5384 10.502 15.5376 10.4731 15.5248C10.3293 15.4589 10.2388 15.3568 10.0645 15.406C9.99275 15.4285 9.93028 15.4737 9.8865 15.5346V15.5346C9.73433 15.3651 9.519 15.4589 9.44368 15.6231C9.42783 15.6263 9.41229 15.6308 9.39727 15.6368C9.40564 15.5861 9.41477 15.5346 9.42618 15.4854C9.43074 15.4642 9.43759 15.4438 9.44216 15.4234C9.62599 14.8901 9.90771 14.3954 10.273 13.9643C10.2886 13.9965 10.311 14.0249 10.3387 14.0476C10.3664 14.0703 10.3987 14.0868 10.4334 14.0959C10.4681 14.105 10.5044 14.1066 10.5397 14.1005C10.5751 14.0944 10.6087 14.0807 10.6382 14.0604C10.778 13.9689 10.9295 13.8963 11.0887 13.8448C11.1838 13.8251 11.2796 13.8054 11.3755 13.7895C11.4714 13.7736 11.5756 13.7608 11.676 13.7487C11.952 13.7424 12.2262 13.794 12.4808 13.9002C12.7354 14.0063 12.9646 14.1646 13.1536 14.3647C13.1758 14.391 13.2033 14.4124 13.2344 14.4275C13.2654 14.4426 13.2993 14.4512 13.3338 14.4525C13.3683 14.4539 13.4027 14.448 13.4349 14.4354C13.467 14.4227 13.4961 14.4035 13.5204 14.379H13.5287C13.603 14.3779 13.674 14.3487 13.7273 14.2973C13.7448 14.2791 13.7623 14.2602 13.779 14.2413C13.8452 14.2369 13.9074 14.2087 13.954 14.1619C14.0043 14.1078 14.0336 14.0378 14.037 13.9643L14.0689 13.5375C14.0688 13.4635 14.0393 13.3925 13.9868 13.34C13.9338 13.2881 13.8625 13.2587 13.7882 13.2583C13.7461 13.2605 13.7048 13.2705 13.6664 13.2878C13.4047 13.0979 12.9741 13.1312 12.6773 13.1296C12.3358 13.1287 11.9945 13.1487 11.6555 13.1894C11.4135 13.192 11.1731 13.2292 10.9418 13.2999C10.9099 13.306 10.8779 13.315 10.8459 13.3219C11.0263 13.1357 11.2112 12.9548 11.3938 12.777C12.3106 11.8855 13.2198 10.982 14.1427 10.1011C14.5581 9.83646 14.9902 9.59861 15.4362 9.389C15.5417 9.35637 15.6427 9.3106 15.7367 9.25279C15.8029 9.22403 15.8684 9.19452 15.9353 9.16727C16.2549 9.03288 16.5812 8.91492 16.913 8.81387C17.1632 8.83392 17.4146 8.83392 17.6647 8.81387C18.2278 8.75484 18.7672 8.59365 19.3059 8.43095C19.6703 8.41469 20.0354 8.44008 20.3939 8.50663C20.47 8.52252 20.5461 8.54219 20.6169 8.56338C20.6941 8.63334 20.7816 8.69125 20.8763 8.73517C21.0285 8.80706 21.1807 8.85625 21.3374 8.91527C21.4786 9.01811 21.6077 9.1364 21.7224 9.26792C22.0891 9.68716 22.3577 10.201 22.6194 10.6891C22.9027 11.2135 23.1591 11.7517 23.3879 12.3017C23.8428 13.4233 24.1992 14.5819 24.4531 15.7647C24.6289 16.5585 24.8457 17.3796 24.9271 18.2029C24.8917 18.2498 24.8691 18.3051 24.8617 18.3634C24.7597 19.3524 24.6053 20.3347 24.4052 21.3079C24.2598 21.6817 24.1008 22.0503 23.9547 22.4165C23.7462 22.911 23.5683 23.4177 23.4221 23.9338C23.2877 24.4696 23.2134 25.0186 23.2007 25.5707V25.5707ZM10.8627 16.6031C10.8705 16.6386 10.8879 16.6713 10.9129 16.6977C10.9318 16.7277 10.9579 16.7524 10.989 16.7696C10.9936 16.7722 10.9985 16.7745 11.0034 16.7764C10.8134 16.7769 10.6236 16.7624 10.4358 16.7333C10.275 16.7077 10.1159 16.6721 9.95954 16.6266C9.9215 16.616 9.88345 16.6054 9.83856 16.5933C10.1692 16.4867 10.5086 16.409 10.8528 16.361C10.8433 16.3963 10.8381 16.4326 10.8376 16.4692C10.8378 16.515 10.8463 16.5603 10.8627 16.6031V16.6031ZM12.08 16.3141C12.3387 16.3315 12.5959 16.3659 12.85 16.417C12.583 16.5151 12.3101 16.5965 12.0329 16.6607C12.0459 16.6361 12.0576 16.6108 12.0679 16.585C12.0998 16.498 12.1032 16.4031 12.0778 16.3141H12.08ZM26.5607 25.3194C26.2518 25.8401 25.8219 26.2752 25.357 26.6612C25.148 26.8452 24.9235 27.011 24.6859 27.1568C24.7164 27.1134 24.7402 27.0657 24.7567 27.0153C24.762 27.0003 24.7658 26.9849 24.7681 26.9692C24.776 26.9298 24.7801 26.8897 24.7803 26.8496C24.778 26.8101 24.7727 26.7709 24.7643 26.7323C24.7541 26.6943 24.7398 26.6575 24.7217 26.6226C24.7156 26.6078 24.7077 26.5938 24.6981 26.5809C24.6762 26.5478 24.6506 26.5171 24.622 26.4894C24.5976 26.4628 24.5666 26.443 24.5322 26.4319C24.4812 26.4119 24.4256 26.4068 24.3717 26.4169C24.3179 26.4271 24.268 26.4522 24.2279 26.4894C24.1757 26.542 24.1462 26.6129 24.1457 26.6869C24.1474 26.7511 24.1701 26.813 24.2104 26.8632C24.1793 26.9091 24.1624 26.963 24.1617 27.0184C24.1605 27.0307 24.1605 27.0431 24.1617 27.0554C24.1308 27.0482 24.0987 27.0472 24.0675 27.0527C24.0362 27.0582 24.0064 27.0699 23.9798 27.0872L23.9395 27.0622C23.9085 27.0432 23.8737 27.0311 23.8376 27.0267C23.8164 26.9743 23.7792 26.9299 23.7313 26.8996C23.6834 26.8694 23.6272 26.8548 23.5705 26.8579C23.6607 26.5883 23.7174 26.3088 23.7394 26.0255C23.7691 25.6789 23.7797 25.3368 23.8102 24.9955C23.8567 24.9959 23.9024 24.9838 23.9426 24.9605C23.9828 24.9372 24.0159 24.9036 24.0384 24.8631C24.3592 24.3064 24.8125 23.8366 25.3585 23.4949C25.4874 23.6517 25.667 23.7592 25.8666 23.799C26.0663 23.8389 26.2736 23.8087 26.4534 23.7136C26.496 23.6893 26.5313 23.654 26.5556 23.6116C26.5799 23.5692 26.5925 23.5211 26.5919 23.4722C26.5919 23.4283 26.5827 23.3799 26.5782 23.3299C26.6953 23.404 26.7815 23.5177 26.8209 23.65C26.8558 23.7604 26.9116 23.8632 26.9852 23.9527C26.9556 24.4356 26.8092 24.9042 26.5584 25.3187L26.5607 25.3194Z" fill="#1A1A1A"/>
<path d="M23.4095 15.3795C23.4036 15.3437 23.3952 15.3083 23.3844 15.2736C23.276 14.8427 23.0081 14.4683 22.6342 14.2255C22.1776 13.9296 21.5887 13.8547 21.066 13.7404C20.4855 13.6133 19.9027 13.4944 19.3161 13.4104C19.0581 13.3734 18.6062 13.2704 18.3132 13.3771C18.1766 13.362 18.0384 13.3689 17.9039 13.3976C17.7762 13.423 17.6598 13.4879 17.5714 13.583C17.483 13.6782 17.4271 13.7987 17.4116 13.9273C17.4048 14.0247 17.4218 14.1224 17.4611 14.2118C17.4484 14.2677 17.4522 14.3259 17.472 14.3796C17.4919 14.4333 17.5269 14.4802 17.5729 14.5145C17.6696 14.734 17.9572 14.7945 18.1968 14.7234C18.2571 14.7054 18.3161 14.6834 18.3734 14.6576C18.4731 14.6433 18.5715 14.6213 18.6678 14.5917C18.9618 14.4907 19.2667 14.4241 19.5763 14.3935C20.2063 14.3503 20.8279 14.4797 21.4244 14.6697C21.7495 14.7673 22.0673 14.8874 22.3755 15.0291C22.5999 15.1358 22.832 15.266 22.8723 15.5278C22.8989 15.6792 23.0808 15.7602 23.217 15.7231C23.2871 15.7012 23.3462 15.6533 23.382 15.5894C23.4178 15.5255 23.4276 15.4504 23.4095 15.3795Z" fill="#1A1A1A"/>
<path d="M23.4243 16.9506C23.3066 16.6932 23.1341 16.4643 22.9188 16.2797C22.7035 16.0951 22.4505 15.9592 22.1773 15.8813C22.1054 15.8612 22.0285 15.8703 21.9634 15.9067C21.8984 15.943 21.8505 16.0036 21.8303 16.075C21.8101 16.1465 21.8193 16.223 21.8558 16.2877C21.8924 16.3524 21.9532 16.4 22.0251 16.4201C22.07 16.433 22.1149 16.4519 22.1598 16.4662C22.1683 16.4681 22.1767 16.4707 22.1849 16.4738V16.4738H22.1902L22.229 16.492L22.3005 16.5291C22.353 16.5571 22.4038 16.5882 22.4527 16.6221L22.4915 16.6494L22.5546 16.7016C22.5988 16.7409 22.6406 16.7818 22.6809 16.8249C22.7007 16.8469 22.7205 16.8688 22.7395 16.8915L22.7494 16.9044V16.9097L22.7654 16.9294C22.7654 16.9294 22.7586 16.9218 22.7555 16.9173C22.8266 17.0147 22.8868 17.1195 22.9351 17.2298C22.9718 17.2928 23.0319 17.339 23.1025 17.3585C23.1757 17.3777 23.2537 17.3673 23.3193 17.3297C23.3825 17.2931 23.4287 17.2333 23.4479 17.1632C23.4647 17.0917 23.4563 17.0167 23.4243 16.9506V16.9506Z" fill="#1A1A1A"/>
<path d="M22.1629 16.4663C22.1515 16.4663 22.153 16.4663 22.1928 16.4762L22.1629 16.4663Z" fill="#1A1A1A"/>
<path d="M22.7505 16.9067L22.7604 16.9197L22.7543 16.9121L22.7505 16.9067Z" fill="#1A1A1A"/>
<path d="M13.5265 15.126C13.2604 14.6974 12.8436 14.3827 12.3571 14.2429C12.3215 14.2329 12.2844 14.23 12.2478 14.2344C12.2111 14.2387 12.1757 14.2502 12.1435 14.2681C12.1113 14.2861 12.083 14.3102 12.0602 14.339C12.0374 14.3679 12.0205 14.4009 12.0105 14.4362C12.0005 14.4715 11.9976 14.5085 12.002 14.5449C12.0063 14.5814 12.0179 14.6166 12.0359 14.6486C12.054 14.6806 12.0782 14.7088 12.1072 14.7315C12.1362 14.7542 12.1694 14.771 12.2049 14.7809C12.2544 14.7953 12.303 14.8112 12.3517 14.8293L12.3715 14.8377L12.44 14.8702C12.5322 14.9167 12.6203 14.9709 12.7033 15.0322V15.0322L12.7162 15.0443C12.736 15.0602 12.7558 15.0776 12.7748 15.095C12.8105 15.1275 12.8455 15.1623 12.879 15.1979C12.8965 15.2168 12.9133 15.2357 12.93 15.2554L12.9483 15.2781C12.9787 15.3197 13.0084 15.3613 13.0358 15.4052C13.0744 15.4668 13.1357 15.511 13.2066 15.5284C13.2775 15.5457 13.3524 15.535 13.4154 15.4984C13.4785 15.4618 13.5247 15.4022 13.5443 15.3322C13.5639 15.2623 13.5553 15.1875 13.5204 15.1237L13.5265 15.126Z" fill="#1A1A1A"/>
<path d="M26.0867 24.6172L25.6789 24.0678C25.6401 24.0062 25.5792 23.9616 25.5085 23.9431C25.4379 23.9245 25.3628 23.9334 25.2985 23.968C25.1782 24.0376 25.1067 24.2275 25.1973 24.3501L25.4651 24.7111C25.4552 24.7111 25.4468 24.7028 25.4362 24.7005C25.2914 24.6702 25.1416 24.6728 24.9979 24.7081L24.6936 24.6059C24.6279 24.5884 24.5581 24.5952 24.4971 24.6249C24.4361 24.6547 24.3881 24.7055 24.3618 24.7678C24.3362 24.83 24.3337 24.8992 24.3548 24.963C24.3758 25.0268 24.4191 25.081 24.4767 25.1159L24.5079 25.1371C24.5323 25.1553 24.5285 25.1515 24.4965 25.1273C24.5178 25.1409 24.5372 25.1572 24.5543 25.1757L24.5635 25.1856C24.5769 25.2735 24.6116 25.3568 24.6646 25.4284C24.7176 25.5 24.7874 25.5577 24.8678 25.5965C24.896 25.6124 24.9256 25.6275 24.953 25.6449C24.953 25.6449 24.953 25.6411 24.953 25.6449V25.6487L24.9492 25.6601C24.9492 25.6525 24.9492 25.6601 24.9492 25.6706C24.9494 25.6679 24.9494 25.6651 24.9492 25.6623C24.9492 25.6661 24.9492 25.6623 24.9492 25.6555L24.9447 25.6729C24.9434 25.6758 24.9419 25.6786 24.9401 25.6812L24.9234 25.7085L24.918 25.7145C24.9093 25.7209 24.9016 25.7286 24.8952 25.7372C24.8952 25.7372 24.8952 25.7372 24.8884 25.741L24.867 25.7516C24.8518 25.7554 24.8184 25.766 24.8191 25.766L24.797 25.7698H24.743C24.7044 25.7698 24.6658 25.7675 24.6274 25.763L24.6007 25.7584L24.5247 25.7425L24.3877 25.7092C24.3159 25.6892 24.239 25.6983 24.1739 25.7346C24.1088 25.771 24.0609 25.8315 24.0408 25.903C24.0206 25.9744 24.0298 26.0509 24.0663 26.1156C24.1028 26.1803 24.1637 26.228 24.2355 26.2481C24.5931 26.3396 25.0283 26.3994 25.3129 26.1065C25.3751 26.0409 25.4237 25.9638 25.4559 25.8795C25.5067 25.8802 25.5568 25.8682 25.6017 25.8447C25.6467 25.8211 25.6849 25.7868 25.7131 25.7448L25.7207 25.735L25.7451 25.7055C25.7702 25.6767 25.7953 25.6495 25.8212 25.6237C25.8452 25.5994 25.8706 25.5764 25.8972 25.5549C25.9049 25.5473 25.914 25.5405 25.9224 25.5337L25.9452 25.517L25.9513 25.5125C26.0178 25.503 26.0813 25.4787 26.1371 25.4415C26.193 25.4043 26.2397 25.3551 26.2739 25.2976C26.4238 25.0425 26.2343 24.8163 26.0867 24.6172Z" fill="#1A1A1A"/>
</g>
<defs>
<clipPath id="clip0_18_759">
<rect width="39" height="37" fill="white"/>
</clipPath>
</defs>
</svg>
