<svg width="391" height="122" viewBox="0 0 391 122" fill="none" xmlns="http://www.w3.org/2000/svg">
<path d="M230.811 120H202.748C208.467 101.513 211.393 81.031 211.393 58.687C211.393 38.604 208.733 18.787 202.881 1.62999C203.821 1.5341 204.744 1.43544 205.667 1.33681C211.144 0.751443 216.613 0.166992 225.491 0.166992C254.751 0.166992 267.785 10.275 267.785 24.506C267.785 30.225 265.524 37.274 263.13 44.589C263.005 44.9935 262.879 45.398 262.753 45.8024C260.478 53.1109 258.209 60.4006 258.209 67.332C258.209 77.307 262.731 85.553 278.292 89.144V87.947C274.834 62.411 271.642 33.018 270.578 1.76299H294.784C290.395 24.905 286.405 46.318 286.405 68.928C286.405 86.085 288.533 102.976 294.518 120H244.776C239.19 108.961 236.929 99.385 236.929 90.873C236.929 72.519 247.303 58.687 254.884 48.579C259.406 42.727 262.864 38.072 262.864 33.55C262.864 29.56 260.736 27.964 257.544 27.964C246.505 27.964 219.639 44.456 219.639 78.105C219.639 90.208 222.831 104.572 230.811 120ZM26.547 71.9422C33.7543 66.9598 39.6492 62.8847 39.6492 57.49C39.6492 49.51 25.2852 40.466 1.34522 40.466V1.76299C6.00022 0.698993 8.52722 0.29999 12.5172 0.29999C34.8612 0.29999 42.8412 38.205 42.8412 54.963C57.2052 39.269 54.8112 21.048 50.5552 1.76299H80.3472C85.1908 29.0401 69.4578 40.6811 57.4643 49.5553C50.6861 54.5706 45.1022 58.7021 45.1022 64.273C45.1022 72.253 59.4662 82.228 83.5392 82.228V120C79.5492 121.197 76.2242 121.596 72.2342 121.596C49.8902 121.596 42.0432 83.159 42.0432 66.8C25.9502 84.223 26.4822 98.188 31.2702 120H1.47822C-3.38157 92.6317 13.6755 80.8402 26.547 71.9422ZM146.327 120H107.624C104.033 111.355 102.836 104.04 102.836 96.725C102.836 81.031 109.353 67.199 114.54 56.293C117.998 49.111 120.791 43.126 120.791 37.939C120.791 32.087 116.934 28.629 112.146 28.629C105.293 28.629 96.9225 33.6578 90.3195 37.6247C89.1049 38.3543 87.9501 39.0481 86.8756 39.668V1.76299H162.553V39.801C159.494 37.141 147.79 27.698 138.613 27.698C127.441 27.698 126.377 42.195 126.377 52.569C126.377 77.706 135.687 99.917 146.327 120ZM167.423 120H196.55C190.565 102.976 188.038 83.159 188.038 63.209C188.038 40.865 191.23 19.452 196.683 1.76299H167.423C173.408 18.787 175.935 38.604 175.935 58.687C175.935 81.031 173.009 101.513 167.423 120ZM298.155 120H330.74C323.159 105.237 320.1 91.671 320.1 79.701C320.1 44.057 349.36 27.964 361.463 27.964C364.522 27.964 366.916 29.427 366.916 33.417C366.916 37.8709 363.045 42.4538 358.099 48.3095L357.872 48.579L357.492 49.04C348.885 59.4974 337.39 73.4627 337.39 92.336C337.39 100.582 339.518 109.626 344.838 120H390.191C374.231 86.484 369.443 48.712 369.443 1.76299H312.386C316.509 8.81199 318.637 22.112 318.637 36.742C318.637 61.3166 310.011 85.9904 301.919 109.137C300.638 112.798 299.372 116.421 298.155 120Z" fill="#E5E5E5"/>
<path d="M230.811 120H202.748C208.467 101.513 211.393 81.031 211.393 58.687C211.393 38.604 208.733 18.787 202.881 1.62999C203.821 1.5341 204.744 1.43544 205.667 1.33681C211.144 0.751443 216.613 0.166992 225.491 0.166992C254.751 0.166992 267.785 10.275 267.785 24.506C267.785 30.225 265.524 37.274 263.13 44.589C263.005 44.9935 262.879 45.398 262.753 45.8024C260.478 53.1109 258.209 60.4006 258.209 67.332C258.209 77.307 262.731 85.553 278.292 89.144V87.947C274.834 62.411 271.642 33.018 270.578 1.76299H294.784C290.395 24.905 286.405 46.318 286.405 68.928C286.405 86.085 288.533 102.976 294.518 120H244.776C239.19 108.961 236.929 99.385 236.929 90.873C236.929 72.519 247.303 58.687 254.884 48.579C259.406 42.727 262.864 38.072 262.864 33.55C262.864 29.56 260.736 27.964 257.544 27.964C246.505 27.964 219.639 44.456 219.639 78.105C219.639 90.208 222.831 104.572 230.811 120ZM26.547 71.9422C33.7543 66.9598 39.6492 62.8847 39.6492 57.49C39.6492 49.51 25.2852 40.466 1.34522 40.466V1.76299C6.00022 0.698993 8.52722 0.29999 12.5172 0.29999C34.8612 0.29999 42.8412 38.205 42.8412 54.963C57.2052 39.269 54.8112 21.048 50.5552 1.76299H80.3472C85.1908 29.0401 69.4578 40.6811 57.4643 49.5553C50.6861 54.5706 45.1022 58.7021 45.1022 64.273C45.1022 72.253 59.4662 82.228 83.5392 82.228V120C79.5492 121.197 76.2242 121.596 72.2342 121.596C49.8902 121.596 42.0432 83.159 42.0432 66.8C25.9502 84.223 26.4822 98.188 31.2702 120H1.47822C-3.38157 92.6317 13.6755 80.8402 26.547 71.9422ZM146.327 120H107.624C104.033 111.355 102.836 104.04 102.836 96.725C102.836 81.031 109.353 67.199 114.54 56.293C117.998 49.111 120.791 43.126 120.791 37.939C120.791 32.087 116.934 28.629 112.146 28.629C105.293 28.629 96.9225 33.6578 90.3195 37.6247C89.1049 38.3543 87.9501 39.0481 86.8756 39.668V1.76299H162.553V39.801C159.494 37.141 147.79 27.698 138.613 27.698C127.441 27.698 126.377 42.195 126.377 52.569C126.377 77.706 135.687 99.917 146.327 120ZM167.423 120H196.55C190.565 102.976 188.038 83.159 188.038 63.209C188.038 40.865 191.23 19.452 196.683 1.76299H167.423C173.408 18.787 175.935 38.604 175.935 58.687C175.935 81.031 173.009 101.513 167.423 120ZM298.155 120H330.74C323.159 105.237 320.1 91.671 320.1 79.701C320.1 44.057 349.36 27.964 361.463 27.964C364.522 27.964 366.916 29.427 366.916 33.417C366.916 37.8709 363.045 42.4538 358.099 48.3095L357.872 48.579L357.492 49.04C348.885 59.4974 337.39 73.4627 337.39 92.336C337.39 100.582 339.518 109.626 344.838 120H390.191C374.231 86.484 369.443 48.712 369.443 1.76299H312.386C316.509 8.81199 318.637 22.112 318.637 36.742C318.637 61.3166 310.011 85.9904 301.919 109.137C300.638 112.798 299.372 116.421 298.155 120Z" stroke="#E5E5E5"/>
</svg>
